<svg width="26" height="26" viewBox="0 0 26 26" fill="none" xmlns="http://www.w3.org/2000/svg">
<path fill-rule="evenodd" clip-rule="evenodd" d="M3.45844 3.34067C2.5205 4.28181 1.77648 5.39912 1.26887 6.62879C0.761263 7.85846 0.5 9.17641 0.5 10.5074C0.5 11.8384 0.761263 13.1563 1.26887 14.386C1.77648 15.6157 2.5205 16.733 3.45844 17.6741C4.39638 18.6153 5.50988 19.3618 6.73536 19.8712C7.96084 20.3805 9.2743 20.6427 10.6007 20.6427C11.9272 20.6427 13.2407 20.3805 14.4661 19.8712C15.6916 19.3618 16.8051 18.6153 17.743 17.6741C19.5827 15.7628 20.6007 13.203 20.5777 10.5459C20.5547 7.8888 19.4925 5.34708 17.62 3.46817C15.7475 1.58925 13.2145 0.523472 10.5664 0.500383C7.91839 0.477294 5.36725 1.49874 3.46248 3.34472M16.317 16.2432C15.5698 17.0098 14.6785 17.62 13.6946 18.0386C12.7108 18.4572 11.6539 18.6757 10.5853 18.6816C9.51673 18.6875 8.45756 18.4807 7.46918 18.073C6.48079 17.6653 5.58282 17.065 4.82725 16.3067C4.07168 15.5484 3.47353 14.6473 3.06744 13.6554C2.66134 12.6636 2.45537 11.6008 2.46144 10.5285C2.46752 9.45624 2.68552 8.39583 3.10282 7.40869C3.52013 6.42155 4.12845 5.52728 4.89256 4.77766C6.41356 3.28551 8.45964 2.45542 10.5868 2.46755C12.7139 2.47969 14.7504 3.33305 16.2544 4.84246C17.7584 6.35187 18.6085 8.39553 18.6203 10.5299C18.632 12.6643 17.8044 14.7173 16.317 16.2432Z" fill="#DBDBDB"/>
<path d="M16.3139 19.1476C15.9351 18.7673 15.7225 18.2516 15.7227 17.714C15.7228 17.1763 15.9359 16.6608 16.3149 16.2807C16.6939 15.9007 17.2078 15.6873 17.7437 15.6875C18.2795 15.6877 18.7933 15.9015 19.172 16.2818L24.8842 22.0155C25.0772 22.2025 25.231 22.4262 25.3369 22.6734C25.4428 22.9207 25.4985 23.1867 25.5008 23.4558C25.5031 23.7249 25.452 23.9918 25.3505 24.2409C25.2489 24.49 25.0989 24.7163 24.9093 24.9066C24.7196 25.0969 24.4941 25.2473 24.2459 25.3493C23.9976 25.4512 23.7317 25.5024 23.4635 25.5001C23.1953 25.4978 22.9302 25.4419 22.6838 25.3356C22.4373 25.2294 22.2145 25.075 22.0281 24.8814L16.3139 19.1476Z" fill="#DBDBDB"/>
</svg>
