<svg width="64" height="1560" viewBox="0 0 64 1560" fill="none" xmlns="http://www.w3.org/2000/svg">
<rect x="0.5" y="0.5" width="63" height="1559" rx="4.5" stroke="#9747FF" stroke-dasharray="10 5"/>
<g clip-path="url(#clip0_884_12004)">
<path d="M37.3333 20L28.0013 32V34L24 30L22.6667 34.6667L24.668 36.6667L20 41.3333V44H22.6667L27.3333 39.3333L29.3347 41.3333L34.0013 40L30 36H32L44 26.6667V20H37.3333ZM30 33L38.668 24H40.0013V25.3333L31.0013 34H30V33Z" fill="#DBDBDB"/>
</g>
<g clip-path="url(#clip1_884_12004)">
<path d="M38 76.606C38 77.596 37.1972 78.4 36.2048 78.4H36.1952C35.2028 78.4 34.4 77.596 34.4 76.606V76.594C34.4 75.604 35.2028 74.8 36.1952 74.8H36.2048C37.1972 74.8 38 75.604 38 76.594V76.606ZM33.2 73.6096C33.2 74.2672 32.6672 74.8 32.0096 74.8H31.9904C31.3328 74.8 30.8 74.2672 30.8 73.6096V73.5904C30.8 72.9328 31.3328 72.4 31.9904 72.4H32.0096C32.6672 72.4 33.2 72.9328 33.2 73.5904V73.6096ZM33.2 79.612C33.2 80.2684 32.6684 80.8 32.012 80.8H31.988C31.3316 80.8 30.8 80.2684 30.8 79.612V79.588C30.8 78.9316 31.3316 78.4 31.988 78.4H32.012C32.6684 78.4 33.2 78.9316 33.2 79.588V79.612ZM29.6 76.6168C29.6 77.602 28.8008 78.4 27.8168 78.4H27.7832C26.7992 78.4 26 77.602 26 76.6168V76.5832C26 75.5992 26.7992 74.8 27.7832 74.8H27.8168C28.8008 74.8 29.6 75.5992 29.6 76.5832V76.6168ZM44 68.8L35.6 64V66.4L39.2 70L36.8 72.4L32 67.6L27.2 72.4L24.8 70L28.4 66.4V64L20 68.8L24.8 74.8L20 79.6L23.6 84.4V79.6H26L27.2 85.6L29.6 88V83.2L32 85.6L34.4 83.2V88L36.8 85.6L38 79.6H40.4V84.4L44 79.6L39.2 74.8L44 68.8Z" fill="#5832A8"/>
</g>
<g clip-path="url(#clip2_884_12004)">
<path d="M32 108C38.6264 108 44 113.374 44 120C44 126.626 38.6264 132 32 132C25.3724 132 20 126.626 20 120C20 113.374 25.3724 108 32 108ZM32 110.4C26.7668 110.4 22.4 114.762 22.4 120C22.4 125.238 26.7668 129.6 32 129.6C37.2344 129.6 41.6 125.238 41.6 120C41.6 114.762 37.2344 110.4 32 110.4ZM32 115.2L36.8 120L32 124.8L27.2 120L32 115.2Z" fill="#DBDBDB"/>
</g>
<path d="M28.625 152V157.454L26.3739 156.364L23 158.545L24.1239 162.909L32 167.272L39.875 162.909L41 158.545L37.6239 156.364L35.3739 157.454V152H28.625ZM30.875 157.454V154.182H33.125V157.454L32 158.545L30.875 157.454ZM36.4989 160.726L32 164L27.4989 160.726L32 161.818L36.4989 160.726ZM31.9997 169.454L36.4997 167.272L35.3747 173.819H37.6235V176H26.3747V173.819H28.6247L27.4985 167.272L31.9997 169.454Z" fill="#DBDBDB"/>
<path d="M33 196H31L22 210L32 220L42 210L33 196ZM26 208L28 206L32 210L36 206L38 208L32 217L26 208Z" fill="#8C8C8C"/>
<g clip-path="url(#clip3_884_12004)">
<path fill-rule="evenodd" clip-rule="evenodd" d="M32 255.432L44 246.672V240H37.328L28.568 252V255.432L23.432 250.296L21.704 255.432L23.912 257.616L20 261.528L22.472 264L26.384 260.088L28.568 262.296L33.704 260.568L28.568 255.432H32Z" fill="#8C8C8C"/>
</g>
<path fill-rule="evenodd" clip-rule="evenodd" d="M43.0014 294.878C43.0014 297.5 38.8844 299.8 33.8015 299.8C28.7185 299.8 24.6016 297.5 24.6016 294.878V290.922C24.6016 288.3 28.7185 286 33.8015 286C38.8844 286 43.0014 288.3 43.0014 290.922V294.878Z" fill="#8C8C8C"/>
<path fill-rule="evenodd" clip-rule="evenodd" d="M29.1999 296.833C31.1495 296.726 33.0827 297.241 34.7199 298.305V301.295C33.0827 302.359 31.1495 302.875 29.1999 302.767C27.2503 302.875 25.3171 302.359 23.68 301.295V298.305C25.3171 297.241 27.2503 296.726 29.1999 296.833ZM29.1999 292.9C24.117 292.9 20 295.2 20 297.822V301.778C20 304.4 24.117 306.7 29.1999 306.7C34.2829 306.7 38.3998 304.4 38.3998 301.778V297.822C38.3998 295.2 34.2829 292.9 29.1999 292.9Z" fill="#8C8C8C"/>
<g filter="url(#filter0_d_884_12004)">
<path d="M29.2306 341.846L34.7691 340V352H29.2306V341.846ZM20 338.154L25.5384 336.307V352H20V338.154ZM44 328V352H38.4616V329.846L44 328Z" fill="#DBDBDB"/>
</g>
<g clip-path="url(#clip4_884_12004)">
<path d="M29.2306 385.846L34.7691 384V396H29.2306V385.846ZM20 382.154L25.5384 380.307V396H20V382.154ZM44 372V396H38.4616V373.846L44 372Z" fill="#6C6C6C"/>
</g>
<g filter="url(#filter1_d_884_12004)">
<path d="M31.7621 420.188H22.7429L27.3914 428.218L31.7621 420.188ZM32.2381 420.188L36.6093 428.219L41.258 420.188H32.2381ZM36.4464 428.5H27.5549L32.0009 436.181L36.4464 428.5ZM20.8571 418H43.1429L44 419.751L32.8571 439H31.1429L20 419.751L20.8571 418Z" fill="#DBDBDB"/>
</g>
<path d="M31.7621 464.188H22.7429L27.3914 472.218L31.7621 464.188ZM32.2381 464.188L36.6093 472.219L41.258 464.188H32.2381ZM36.4464 472.5H27.5549L32.0009 480.181L36.4464 472.5ZM20.8571 462H43.1429L44 463.751L32.8571 483H31.1429L20 463.751L20.8571 462Z" fill="#6C6C6C"/>
<g filter="url(#filter2_d_884_12004)">
<path d="M30.2857 512.571L33.7151 507.429L22.5714 513.429L20 519.429L21.7143 526.286L28.5714 528L34.5714 526.286L40.5723 514.286L35.4286 517.714L44 504L30.2857 512.571ZM24.2866 519.429L26.0009 516.857L35.4286 512.571L31.1429 522L28.5714 523.714H24.2866V519.429Z" fill="#DBDBDB"/>
</g>
<g clip-path="url(#clip5_884_12004)">
<path d="M30.2857 556.571L33.7151 551.429L22.5714 557.429L20 563.429L21.7143 570.286L28.5714 572L34.5714 570.286L40.5723 558.286L35.4286 561.714L44 548L30.2857 556.571ZM24.2866 563.429L26.0009 560.857L35.4286 556.571L31.1429 566L28.5714 567.714H24.2866V563.429Z" fill="#6C6C6C"/>
</g>
<g filter="url(#filter3_d_884_12004)">
<path d="M31.9995 592L43 598V610L31.9995 616L21 610V598L31.9995 592ZM23.2925 608.769L31.9995 613.519L40.7075 608.769V599.231L31.9995 594.481L23.2925 599.231V608.769ZM36.583 606.571L31.9998 609.143L27.4167 606.571V601.428L31.9998 598.857L36.583 601.428V606.571Z" fill="#DBDBDB"/>
</g>
<path d="M31.9995 636L43 642V654L31.9995 660L21 654V642L31.9995 636ZM23.2925 652.769L31.9995 657.519L40.7075 652.769V643.231L31.9995 638.481L23.2925 643.231V652.769ZM36.583 650.571L31.9998 653.143L27.4167 650.571V645.428L31.9998 642.857L36.583 645.428V650.571Z" fill="#6C6C6C"/>
<g clip-path="url(#clip6_884_12004)">
<path d="M34 684.5C33.5556 682.441 32 680 32 680C32 680 30.4444 682.441 30 684.5C30.4444 686.559 32 690 32 690C32 690 33.5556 686.559 34 684.5Z" fill="url(#paint0_linear_884_12004)"/>
<path d="M25.141 685.903C23.5058 687.194 21.8706 690.742 24.0508 693C24.479 690.212 25.0755 689.336 25.84 688.212C26.0488 687.906 26.2699 687.581 26.5036 687.194L28.9564 689.129C28.9564 689.129 28 686.5 28.4113 684.613C26.7761 683.323 25 682 25 682L25.5 684L25.141 685.903Z" fill="url(#paint1_linear_884_12004)"/>
<path d="M38.8584 685.903C40.4936 687.194 42.1288 690.742 39.9485 693C39.5203 690.212 38.9239 689.336 38.1593 688.212C37.9505 687.906 37.7295 687.581 37.4957 687.194L35.043 689.129C35.043 689.129 35.999 686.5 35.588 684.613C37.2232 683.323 38.9994 682 38.9994 682L38.4994 684L38.8584 685.903Z" fill="url(#paint2_linear_884_12004)"/>
<path fill-rule="evenodd" clip-rule="evenodd" d="M26.8663 689C24.8128 691.182 25.0695 693.364 25.0695 693.364C23.5294 691.182 22.0535 690.636 20 690.636C20.8971 692.543 21.487 694.553 23.1599 696.554C26 699 27.4594 701.696 27.893 704V698.818C27.893 698.818 29.6898 700.455 32 701.273C34.3102 700.455 36.107 698.818 36.107 698.818V704C36.5406 701.696 38 699 40.8401 696.554C42.513 694.553 43.1029 692.543 44 690.636C41.9465 690.636 40.4706 691.182 38.9305 693.364C38.9305 693.364 39.1872 691.182 37.1337 689C37.1337 689 35.8503 691.727 32 692.818C28.1497 691.727 26.8663 689 26.8663 689ZM26.4695 693.188C28.8499 694.048 30.0032 695.247 30.2486 697.125C27.1321 696.734 26.4695 694.935 26.4695 693.188ZM37.5305 693.188C35.1501 694.048 33.9968 695.247 33.7514 697.125C36.8679 696.734 37.5305 694.935 37.5305 693.188Z" fill="#6A168F"/>
</g>
<path d="M31.4999 740C32.3283 740 33 738.385 33 737.004C33 735.623 32.3283 735 31.4999 735C30.6715 735 30 735.623 30 737.004C30 738.385 30.6715 740 31.4999 740Z" fill="#8D62C4"/>
<path d="M32.4999 740C33.3283 740 34 738.385 34 737.004C34 735.623 33.3283 735 32.4999 735C31.6715 735 31 735.623 31 737.004C31 738.385 31.6715 740 32.4999 740Z" fill="#8D62C4"/>
<path fill-rule="evenodd" clip-rule="evenodd" d="M27.2484 730.465H27.9863C29.1612 729.771 30.5338 729.372 32 729.372C33.4663 729.372 34.8388 729.771 36.0138 730.465H36.7516C36.7516 728.279 36.7516 727.189 35.3 725C37.8666 725.547 43 728.716 43 737.023C41.1699 737.75 39.7204 739.664 38.9681 740.812C37.6532 743.302 35.0262 745 32 745C28.9738 745 26.3468 743.302 25.0319 740.812C24.2796 739.664 22.8301 737.75 21 737.023C21 728.716 26.1334 725.547 28.7 725C27.2484 727.189 27.2484 728.279 27.2484 730.465ZM36.1247 736.258C36.1247 739.341 34.2781 741.395 32.0001 741.395C29.7221 741.395 27.8753 739.341 27.8753 736.258C27.8753 733.995 29.7965 733.198 32.0001 733.198C34.2039 733.198 36.1247 733.995 36.1247 736.258Z" fill="#8D62C4"/>
<path d="M38.166 745.945C38.499 745.419 38.6772 744.91 38.9998 744.425C39.413 743.805 39.8261 743.185 39.9568 742.425C40.0036 742.153 40.2396 741.904 40.4821 742.037C40.668 742.138 40.7829 742.296 40.8956 742.451C41.0718 742.693 41.2426 742.927 41.6703 742.927C42.6426 742.927 42.9992 742.927 42.9992 743.928C42.9992 744.813 41.4359 746.48 38.9962 746.852C38.4502 746.936 37.499 747 38.166 745.945Z" fill="#8D62C4"/>
<path d="M24.9994 744.425C25.322 744.91 25.5 745.418 25.8332 745.945C26.5 747 25.549 746.936 25.003 746.852C22.5633 746.48 21 744.813 21 743.928C21 742.927 21.3566 742.927 22.3289 742.927C22.7566 742.927 22.9274 742.693 23.1036 742.451C23.2163 742.296 23.3312 742.138 23.5171 742.037C23.7596 741.904 23.9956 742.153 24.0424 742.425C24.1731 743.185 24.5862 743.805 24.9994 744.425Z" fill="#8D62C4"/>
<path fill-rule="evenodd" clip-rule="evenodd" d="M40.7273 771.586C44 771.586 44 775.012 44 776.154C44 779.58 40.7273 780.722 40.7273 780.722H44C42.9297 781.469 42.2095 782.826 41.4195 784.315C39.7939 787.38 37.8731 791 32 791C26.1269 791 24.2061 787.38 22.5805 784.315C21.7906 782.826 21.0703 781.469 20 780.722H23.2727C23.2727 780.722 20 779.58 20 776.154C20 775.012 20 771.586 23.2727 771.586H25.0003C26.0165 771.586 27.0186 771.338 27.9275 770.862L31.0243 769.241C31.6385 768.92 32.3615 768.92 32.9757 769.241L36.0725 770.862C36.9814 771.338 37.9835 771.586 38.9997 771.586H40.7273ZM35.8568 777.296L31.9999 773.258L28.143 777.296L29.526 778.744L29 780.524L27 782.475V784.19L27.9275 785.238L29.8183 786.513L31.9999 784.714L33.09 785.614L34.1801 786.513L36.0725 785.238L37 784.19V782.475L35 780.524L34.473 778.744L35.8568 777.296Z" fill="#B04BC7"/>
<g clip-path="url(#clip7_884_12004)">
<path opacity="0.2" d="M24.6552 836C24.0726 836 23.7809 835.296 24.1928 834.884L28.116 830.961C28.2386 830.838 28.4049 830.769 28.5783 830.769H38.1153C38.4764 830.769 38.7692 830.476 38.7692 830.115V820.578C38.7692 820.405 38.8381 820.239 38.9606 820.116L42.8837 816.193C43.2957 815.781 44 816.073 44 816.655V835.346C44 835.707 43.7072 836 43.3461 836H24.6552Z" fill="#DBDBDB"/>
<path d="M39.3449 812C39.9273 812 40.2191 812.704 39.8072 813.116L35.884 817.039C35.7615 817.162 35.5951 817.231 35.4217 817.231H25.8847C25.5236 817.231 25.2309 817.524 25.2309 817.885V827.422C25.2309 827.595 25.162 827.761 25.0393 827.884L21.1162 831.807C20.7043 832.219 20 831.927 20 831.345V812.654C20 812.293 20.2927 812 20.6539 812H39.3449Z" fill="#DBDBDB"/>
<path opacity="0.2" d="M29 821.75C29 821.336 29.3359 821 29.75 821H34.25C34.6642 821 35 821.336 35 821.75V826.25C35 826.664 34.6642 827 34.25 827H29.75C29.3359 827 29 826.664 29 826.25V821.75Z" fill="#DBDBDB"/>
</g>
<g opacity="0.2" filter="url(#filter4_d_884_12004)">
<path d="M24.6552 880C24.0726 880 23.7809 879.296 24.1928 878.884L28.116 874.961C28.2386 874.838 28.4049 874.769 28.5783 874.769H38.1153C38.4764 874.769 38.7692 874.476 38.7692 874.115V864.578C38.7692 864.405 38.8381 864.239 38.9606 864.116L42.8837 860.193C43.2957 859.781 44 860.073 44 860.655V879.346C44 879.707 43.7072 880 43.3461 880H24.6552Z" fill="#DBDBDB"/>
</g>
<g filter="url(#filter5_d_884_12004)">
<path d="M39.3449 856C39.9273 856 40.2191 856.704 39.8072 857.116L35.884 861.039C35.7615 861.162 35.5951 861.231 35.4217 861.231H25.8847C25.5236 861.231 25.2309 861.524 25.2309 861.885V871.422C25.2309 871.595 25.162 871.761 25.0393 871.884L21.1162 875.807C20.7043 876.219 20 875.927 20 875.345V856.654C20 856.293 20.2927 856 20.6539 856H39.3449Z" fill="#DBDBDB"/>
</g>
<g opacity="0.2" filter="url(#filter6_d_884_12004)">
<path d="M29 865.75C29 865.336 29.3359 865 29.75 865H34.25C34.6642 865 35 865.336 35 865.75V870.25C35 870.664 34.6642 871 34.25 871H29.75C29.3359 871 29 870.664 29 870.25V865.75Z" fill="#DBDBDB"/>
</g>
<g clip-path="url(#clip8_884_12004)">
<path opacity="0.2" d="M39.3449 900C39.9273 900 40.2191 900.704 39.8072 901.116L35.884 905.039C35.7615 905.162 35.5951 905.231 35.4217 905.231H25.8847C25.5236 905.231 25.2309 905.524 25.2309 905.885V915.422C25.2309 915.595 25.162 915.761 25.0393 915.884L21.1162 919.807C20.7043 920.219 20 919.927 20 919.345V900.654C20 900.293 20.2927 900 20.6539 900H39.3449Z" fill="#DBDBDB"/>
<path d="M24.6552 924C24.0726 924 23.7809 923.296 24.1928 922.884L28.116 918.961C28.2386 918.838 28.4049 918.769 28.5783 918.769H38.1153C38.4764 918.769 38.7692 918.476 38.7692 918.115V908.578C38.7692 908.405 38.8381 908.239 38.9606 908.116L42.8837 904.193C43.2957 903.781 44 904.073 44 904.655V923.346C44 923.707 43.7072 924 43.3461 924H24.6552Z" fill="#DBDBDB"/>
<path opacity="0.2" d="M29 909.75C29 909.336 29.3359 909 29.75 909H34.25C34.6642 909 35 909.336 35 909.75V914.25C35 914.664 34.6642 915 34.25 915H29.75C29.3359 915 29 914.664 29 914.25V909.75Z" fill="#DBDBDB"/>
</g>
<g opacity="0.2" filter="url(#filter7_d_884_12004)">
<path d="M39.3449 944C39.9273 944 40.2191 944.704 39.8072 945.116L35.884 949.039C35.7615 949.162 35.5951 949.231 35.4217 949.231H25.8847C25.5236 949.231 25.2309 949.524 25.2309 949.885V959.422C25.2309 959.595 25.162 959.761 25.0393 959.884L21.1162 963.807C20.7043 964.219 20 963.927 20 963.345V944.654C20 944.293 20.2927 944 20.6539 944H39.3449Z" fill="#DBDBDB"/>
</g>
<g filter="url(#filter8_d_884_12004)">
<path d="M24.6552 968C24.0726 968 23.7809 967.296 24.1928 966.884L28.116 962.961C28.2386 962.838 28.4049 962.769 28.5783 962.769H38.1153C38.4764 962.769 38.7692 962.476 38.7692 962.115V952.578C38.7692 952.405 38.8381 952.239 38.9606 952.116L42.8837 948.193C43.2957 947.781 44 948.073 44 948.655V967.346C44 967.707 43.7072 968 43.3461 968H24.6552Z" fill="#DBDBDB"/>
</g>
<g opacity="0.2" filter="url(#filter9_d_884_12004)">
<path d="M29 953.75C29 953.336 29.3359 953 29.75 953H34.25C34.6642 953 35 953.336 35 953.75V958.25C35 958.664 34.6642 959 34.25 959H29.75C29.3359 959 29 958.664 29 958.25V953.75Z" fill="#DBDBDB"/>
</g>
<g clip-path="url(#clip9_884_12004)">
<path opacity="0.2" d="M34.3346 988C34.9262 988 35.2225 988.715 34.8042 989.134L30.8197 993.118C30.6952 993.243 30.5263 993.313 30.3502 993.313H25.9767C25.6099 993.313 25.3126 993.61 25.3126 993.977V998.35C25.3126 998.526 25.2427 998.695 25.1181 998.82L21.1336 1002.8C20.7153 1003.22 20 1002.93 20 1002.33V988.664C20 988.297 20.2973 988 20.6641 988H34.3346Z" fill="#DBDBDB"/>
<path d="M39.8048 988.195C39.9297 988.07 40.0993 988 40.2761 988H43.3333C43.7015 988 44 988.298 44 988.667V991.724C44 991.901 43.9297 992.07 43.8048 992.195L24.1953 1011.8C24.0702 1011.93 23.9007 1012 23.7239 1012H20.6667C20.2985 1012 20 1011.7 20 1011.33V1008.28C20 1008.1 20.0702 1007.93 20.1953 1007.8L39.8048 988.195Z" fill="#DBDBDB"/>
<path opacity="0.2" d="M29.6654 1012C29.0738 1012 28.7775 1011.28 29.1958 1010.87L33.1804 1006.88C33.3048 1006.76 33.4737 1006.69 33.6499 1006.69H38.0233C38.39 1006.69 38.6874 1006.39 38.6874 1006.02V1001.65C38.6874 1001.47 38.7574 1001.3 38.8818 1001.18L42.8663 997.196C43.2847 996.777 44 997.074 44 997.665V1011.34C44 1011.7 43.7026 1012 43.3359 1012H29.6654Z" fill="#DBDBDB"/>
</g>
<g opacity="0.2" filter="url(#filter10_d_884_12004)">
<path d="M34.3346 1032C34.9262 1032 35.2225 1032.72 34.8042 1033.13L30.8197 1037.12C30.6952 1037.24 30.5263 1037.31 30.3502 1037.31H25.9767C25.6099 1037.31 25.3126 1037.61 25.3126 1037.98V1042.35C25.3126 1042.53 25.2427 1042.7 25.1181 1042.82L21.1336 1046.8C20.7153 1047.22 20 1046.93 20 1046.33V1032.66C20 1032.3 20.2973 1032 20.6641 1032H34.3346Z" fill="#DBDBDB"/>
</g>
<g filter="url(#filter11_d_884_12004)">
<path d="M39.8048 1032.2C39.9297 1032.07 40.0993 1032 40.2761 1032H43.3333C43.7015 1032 44 1032.3 44 1032.67V1035.72C44 1035.9 43.9297 1036.07 43.8048 1036.2L24.1953 1055.8C24.0702 1055.93 23.9007 1056 23.7239 1056H20.6667C20.2985 1056 20 1055.7 20 1055.33V1052.28C20 1052.1 20.0702 1051.93 20.1953 1051.8L39.8048 1032.2Z" fill="#DBDBDB"/>
</g>
<g opacity="0.2" filter="url(#filter12_d_884_12004)">
<path d="M29.6654 1056C29.0738 1056 28.7775 1055.28 29.1958 1054.87L33.1804 1050.88C33.3048 1050.76 33.4737 1050.69 33.6499 1050.69H38.0233C38.39 1050.69 38.6874 1050.39 38.6874 1050.02V1045.65C38.6874 1045.47 38.7574 1045.3 38.8818 1045.18L42.8663 1041.2C43.2847 1040.78 44 1041.07 44 1041.67V1055.34C44 1055.7 43.7026 1056 43.3359 1056H29.6654Z" fill="#DBDBDB"/>
</g>
<path d="M23.7506 1076C25.7815 1077.45 30.9229 1082.03 32.7172 1087.94C34.5116 1093.86 32.7172 1100 32.7172 1100C29.1838 1096.2 25.1427 1093.76 24.7738 1093.54L24.7481 1093.53C24.1491 1090.18 21 1084.15 21 1084.15C25.545 1085.19 27.3368 1089.28 27.3368 1089.28C26.8586 1084.04 23.7506 1076 23.7506 1076ZM43 1083.09C43 1083.09 41.4023 1086.05 40.6684 1088.61C40.3663 1089.67 40.3021 1091.25 40.2956 1092.28V1092.62C40.2995 1093.04 40.3085 1093.3 40.3085 1093.3C40.3085 1093.3 38.0746 1096.18 35.964 1097.72C36.0771 1095.8 36.0437 1093.59 35.6967 1091.32C36.8895 1088.89 39.3548 1084.77 43 1083.09ZM40.6684 1076C40.6684 1076 37.5 1080.5 36.6247 1083.93C36.4833 1084.69 36.3663 1085.36 36.2596 1085.96C35.7725 1086.66 35.3213 1087.36 34.91 1088.04C34.8676 1087.89 34.8329 1087.74 34.7879 1087.59C34.3997 1086.31 33.883 1085.08 33.2969 1083.89C33.365 1083.72 33.4293 1083.55 33.5154 1083.37C33.5154 1083.37 36.2455 1078.14 40.6684 1076Z" fill="#DBDBDB"/>
<g filter="url(#filter13_d_884_12004)">
<path d="M23.7506 1120C25.7815 1121.45 30.9229 1126.03 32.7172 1131.94C34.5116 1137.86 32.7172 1144 32.7172 1144C29.1838 1140.2 25.1427 1137.76 24.7738 1137.54L24.7481 1137.53C24.1491 1134.18 21 1128.15 21 1128.15C25.545 1129.19 27.3368 1133.28 27.3368 1133.28C26.8586 1128.04 23.7506 1120 23.7506 1120ZM43 1127.09C43 1127.09 41.4023 1130.05 40.6684 1132.61C40.3663 1133.67 40.3021 1135.25 40.2956 1136.28V1136.62C40.2995 1137.04 40.3085 1137.3 40.3085 1137.3C40.3085 1137.3 38.0746 1140.18 35.964 1141.72C36.0771 1139.8 36.0437 1137.59 35.6967 1135.32C36.8895 1132.89 39.3548 1128.77 43 1127.09ZM40.6684 1120C40.6684 1120 37.5 1124.5 36.6247 1127.93C36.4833 1128.69 36.3663 1129.36 36.2596 1129.96C35.7725 1130.66 35.3213 1131.36 34.91 1132.04C34.8676 1131.89 34.8329 1131.74 34.7879 1131.59C34.3997 1130.31 33.883 1129.08 33.2969 1127.89C33.365 1127.72 33.4293 1127.55 33.5154 1127.37C33.5154 1127.37 36.2455 1122.14 40.6684 1120Z" fill="#DBDBDB"/>
</g>
<path d="M32.5546 1173.56C32.8428 1173.56 33.0937 1173.78 33.1633 1174.11L35.1174 1183.29C35.1297 1183.35 35.136 1183.41 35.136 1183.47V1184.25C35.136 1184.45 35.0698 1184.63 34.9521 1184.77L33.2286 1186.79C33.111 1186.92 32.9515 1187 32.7852 1187H31.2148C31.0485 1187 30.889 1186.92 30.7714 1186.79L29.0478 1184.77C28.9301 1184.63 28.8641 1184.45 28.8641 1184.25V1183.47C28.8641 1183.41 28.8703 1183.35 28.8826 1183.29L30.8367 1174.11C30.9063 1173.78 31.1572 1173.56 31.4452 1173.56H32.5546ZM25.4683 1168.67C25.6346 1168.67 25.7942 1168.74 25.9118 1168.88L28.5716 1171.99C28.749 1172.2 28.8036 1172.51 28.7104 1172.78L27.1263 1177.41C26.959 1177.9 26.4188 1178.03 26.1005 1177.66L23.9568 1175.15C23.7659 1174.93 23.7185 1174.59 23.8394 1174.31L24.229 1173.39C24.4377 1172.91 24.1344 1172.33 23.6681 1172.33H21.8829C21.6732 1172.33 21.4774 1172.21 21.361 1172.01L20.1064 1169.81C19.8285 1169.32 20.1273 1168.67 20.6282 1168.67H25.4683ZM43.3718 1168.67C43.8727 1168.67 44.1715 1169.32 43.8936 1169.81L42.639 1172.01C42.5226 1172.21 42.3269 1172.33 42.1171 1172.33H40.3319C39.8655 1172.33 39.5623 1172.91 39.771 1173.39L40.1606 1174.31C40.2815 1174.59 40.2342 1174.93 40.0433 1175.15L37.8996 1177.66C37.5812 1178.03 37.041 1177.9 36.8737 1177.41L35.2896 1172.78C35.1963 1172.51 35.251 1172.2 35.4284 1171.99L38.0882 1168.88C38.2058 1168.74 38.3654 1168.67 38.5317 1168.67H43.3718ZM33.9088 1165C34.0856 1165 34.2542 1165.09 34.373 1165.24L34.9729 1166.01C35.0779 1166.15 35.136 1166.32 35.136 1166.51V1167.22C35.136 1167.37 35.0992 1167.51 35.0306 1167.63L33.2311 1170.79C33.1148 1170.99 32.919 1171.11 32.7093 1171.11H31.2907C31.081 1171.11 30.8852 1170.99 30.7689 1170.79L28.9694 1167.63C28.9007 1167.51 28.8641 1167.37 28.8641 1167.22V1166.51C28.8641 1166.32 28.9222 1166.15 29.0271 1166.01L29.627 1165.24C29.7458 1165.09 29.9144 1165 30.0912 1165H33.9088Z" fill="#DBDBDB"/>
<g filter="url(#filter14_d_884_12004)">
<path d="M32.5546 1217.56C32.8428 1217.56 33.0937 1217.78 33.1633 1218.11L35.1174 1227.29C35.1297 1227.35 35.136 1227.41 35.136 1227.47V1228.25C35.136 1228.45 35.0698 1228.63 34.9521 1228.77L33.2286 1230.79C33.111 1230.92 32.9515 1231 32.7852 1231H31.2148C31.0485 1231 30.889 1230.92 30.7714 1230.79L29.0478 1228.77C28.9301 1228.63 28.8641 1228.45 28.8641 1228.25V1227.47C28.8641 1227.41 28.8703 1227.35 28.8826 1227.29L30.8367 1218.11C30.9063 1217.78 31.1572 1217.56 31.4452 1217.56H32.5546ZM25.4683 1212.67C25.6346 1212.67 25.7942 1212.74 25.9118 1212.88L28.5716 1215.99C28.749 1216.2 28.8036 1216.51 28.7104 1216.78L27.1263 1221.41C26.959 1221.9 26.4188 1222.03 26.1005 1221.66L23.9568 1219.15C23.7659 1218.93 23.7185 1218.59 23.8394 1218.31L24.229 1217.39C24.4377 1216.91 24.1344 1216.33 23.6681 1216.33H21.8829C21.6732 1216.33 21.4774 1216.21 21.361 1216.01L20.1064 1213.81C19.8285 1213.32 20.1273 1212.67 20.6282 1212.67H25.4683ZM43.3718 1212.67C43.8727 1212.67 44.1715 1213.32 43.8936 1213.81L42.639 1216.01C42.5226 1216.21 42.3269 1216.33 42.1171 1216.33H40.3319C39.8655 1216.33 39.5623 1216.91 39.771 1217.39L40.1606 1218.31C40.2815 1218.59 40.2342 1218.93 40.0433 1219.15L37.8996 1221.66C37.5812 1222.03 37.041 1221.9 36.8737 1221.41L35.2896 1216.78C35.1963 1216.51 35.251 1216.2 35.4284 1215.99L38.0882 1212.88C38.2058 1212.74 38.3654 1212.67 38.5317 1212.67H43.3718ZM33.9088 1209C34.0856 1209 34.2542 1209.09 34.373 1209.24L34.9729 1210.01C35.0779 1210.15 35.136 1210.32 35.136 1210.51V1211.22C35.136 1211.37 35.0992 1211.51 35.0306 1211.63L33.2311 1214.79C33.1148 1214.99 32.919 1215.11 32.7093 1215.11H31.2907C31.081 1215.11 30.8852 1214.99 30.7689 1214.79L28.9694 1211.63C28.9007 1211.51 28.8641 1211.37 28.8641 1211.22V1210.51C28.8641 1210.32 28.9222 1210.15 29.0271 1210.01L29.627 1209.24C29.7458 1209.09 29.9144 1209 30.0912 1209H33.9088Z" fill="#DBDBDB"/>
</g>
<path d="M38.9517 1271.57C39.4803 1272.49 39.1663 1273.66 38.2507 1274.19C37.3322 1274.72 36.161 1274.4 35.6309 1273.49L32.5 1268.06L29.3691 1273.49C28.839 1274.4 27.6678 1274.72 26.7507 1274.19C25.8337 1273.66 25.5197 1272.49 26.0498 1271.57L29.1807 1266.14H22.9159C21.8587 1266.14 21 1265.28 21 1264.22C21 1263.16 21.8587 1262.31 22.9174 1262.31H29.1807L26.0483 1256.88C25.5197 1255.96 25.8337 1254.79 26.7493 1254.26C27.6678 1253.73 28.839 1254.04 29.3691 1254.96L32.5 1260.39L35.6309 1254.96C36.161 1254.04 37.3322 1253.73 38.2493 1254.26C39.1663 1254.79 39.4803 1255.96 38.9502 1256.88L35.8193 1262.31H42.0841C43.1428 1262.31 44 1263.16 44 1264.22C44 1265.28 43.1428 1266.14 42.0841 1266.14H35.8193L38.9517 1271.57Z" fill="#DBDBDB"/>
<path fill-rule="evenodd" clip-rule="evenodd" d="M20 1308.5C22.2124 1304.05 26.7549 1301 32 1301C37.2451 1301 41.7876 1304.05 44 1308.5C41.7876 1312.95 37.2451 1316 32 1316C26.7549 1316 22.2124 1312.95 20 1308.5ZM32 1312.25C32.5014 1312.25 32.9979 1312.15 33.4612 1311.96C33.9244 1311.78 34.3453 1311.5 34.6999 1311.15C35.0544 1310.8 35.3357 1310.39 35.5275 1309.94C35.7194 1309.48 35.8182 1308.99 35.8182 1308.5C35.8182 1308.01 35.7194 1307.52 35.5275 1307.06C35.3357 1306.61 35.0544 1306.2 34.6999 1305.85C34.3453 1305.5 33.9244 1305.22 33.4612 1305.04C32.9979 1304.85 32.5014 1304.75 32 1304.75C30.9874 1304.75 30.0162 1305.15 29.3001 1305.85C28.5841 1306.55 28.1818 1307.51 28.1818 1308.5C28.1818 1309.49 28.5841 1310.45 29.3001 1311.15C30.0162 1311.85 30.9874 1312.25 32 1312.25Z" fill="#DBDBDB"/>
<path d="M32.5546 1349.56C32.8428 1349.56 33.0937 1349.78 33.1633 1350.11L35.1174 1359.29C35.1297 1359.35 35.136 1359.41 35.136 1359.47V1360.25C35.136 1360.45 35.0698 1360.63 34.9521 1360.77L33.2286 1362.79C33.111 1362.92 32.9515 1363 32.7852 1363H31.2148C31.0485 1363 30.889 1362.92 30.7714 1362.79L29.0478 1360.77C28.9301 1360.63 28.8641 1360.45 28.8641 1360.25V1359.47C28.8641 1359.41 28.8703 1359.35 28.8826 1359.29L30.8367 1350.11C30.9063 1349.78 31.1572 1349.56 31.4452 1349.56H32.5546ZM25.4683 1344.67C25.6346 1344.67 25.7942 1344.74 25.9118 1344.88L28.5716 1347.99C28.749 1348.2 28.8036 1348.51 28.7104 1348.78L27.1263 1353.41C26.959 1353.9 26.4188 1354.03 26.1005 1353.66L23.9568 1351.15C23.7659 1350.93 23.7185 1350.59 23.8394 1350.31L24.229 1349.39C24.4377 1348.91 24.1344 1348.33 23.6681 1348.33H21.8829C21.6732 1348.33 21.4774 1348.21 21.361 1348.01L20.1064 1345.81C19.8285 1345.32 20.1273 1344.67 20.6282 1344.67H25.4683ZM43.3718 1344.67C43.8727 1344.67 44.1715 1345.32 43.8936 1345.81L42.639 1348.01C42.5226 1348.21 42.3269 1348.33 42.1171 1348.33H40.3319C39.8655 1348.33 39.5623 1348.91 39.771 1349.39L40.1606 1350.31C40.2815 1350.59 40.2342 1350.93 40.0433 1351.15L37.8996 1353.66C37.5812 1354.03 37.041 1353.9 36.8737 1353.41L35.2896 1348.78C35.1963 1348.51 35.251 1348.2 35.4284 1347.99L38.0882 1344.88C38.2058 1344.74 38.3654 1344.67 38.5317 1344.67H43.3718ZM33.9088 1341C34.0856 1341 34.2542 1341.09 34.373 1341.24L34.9729 1342.01C35.0779 1342.15 35.136 1342.32 35.136 1342.51V1343.22C35.136 1343.37 35.0992 1343.51 35.0306 1343.63L33.2311 1346.79C33.1148 1346.99 32.919 1347.11 32.7093 1347.11H31.2907C31.081 1347.11 30.8852 1346.99 30.7689 1346.79L28.9694 1343.63C28.9007 1343.51 28.8641 1343.37 28.8641 1343.22V1342.51C28.8641 1342.32 28.9222 1342.15 29.0271 1342.01L29.627 1341.24C29.7458 1341.09 29.9144 1341 30.0912 1341H33.9088Z" fill="#6C6C6C"/>
<path d="M23.7506 1384C25.7815 1385.45 30.9229 1390.03 32.7172 1395.94C34.5116 1401.86 32.7172 1408 32.7172 1408C29.1838 1404.2 25.1427 1401.76 24.7738 1401.54L24.7481 1401.53C24.1491 1398.18 21 1392.15 21 1392.15C25.545 1393.19 27.3368 1397.28 27.3368 1397.28C26.8586 1392.04 23.7506 1384 23.7506 1384ZM43 1391.09C43 1391.09 41.4023 1394.05 40.6684 1396.61C40.3663 1397.67 40.3021 1399.25 40.2956 1400.28V1400.62C40.2995 1401.04 40.3085 1401.3 40.3085 1401.3C40.3085 1401.3 38.0746 1404.18 35.964 1405.72C36.0771 1403.8 36.0437 1401.59 35.6967 1399.32C36.8895 1396.89 39.3548 1392.77 43 1391.09ZM40.6684 1384C40.6684 1384 37.5 1388.5 36.6247 1391.93C36.4833 1392.69 36.3663 1393.36 36.2596 1393.96C35.7725 1394.66 35.3213 1395.36 34.91 1396.04C34.8676 1395.89 34.8329 1395.74 34.7879 1395.59C34.3997 1394.31 33.883 1393.08 33.2969 1391.89C33.365 1391.72 33.4293 1391.55 33.5154 1391.37C33.5154 1391.37 36.2455 1386.14 40.6684 1384Z" fill="#6C6C6C"/>
<g clip-path="url(#clip10_884_12004)">
<path d="M34.3346 1428C34.9262 1428 35.2225 1428.72 34.8042 1429.13L30.8197 1433.12C30.6952 1433.24 30.5263 1433.31 30.3502 1433.31H25.9767C25.6099 1433.31 25.3126 1433.61 25.3126 1433.98V1438.35C25.3126 1438.53 25.2427 1438.7 25.1181 1438.82L21.1336 1442.8C20.7153 1443.22 20 1442.93 20 1442.33V1428.66C20 1428.3 20.2973 1428 20.6641 1428H34.3346Z" fill="#6C6C6C"/>
<path d="M39.8048 1428.2C39.9297 1428.07 40.0993 1428 40.2761 1428H43.3333C43.7015 1428 44 1428.3 44 1428.67V1431.72C44 1431.9 43.9297 1432.07 43.8048 1432.2L24.1953 1451.8C24.0702 1451.93 23.9007 1452 23.7239 1452H20.6667C20.2985 1452 20 1451.7 20 1451.33V1448.28C20 1448.1 20.0702 1447.93 20.1953 1447.8L39.8048 1428.2Z" fill="#5D5D5D" fill-opacity="0.5"/>
<path d="M29.6654 1452C29.0738 1452 28.7775 1451.28 29.1958 1450.87L33.1804 1446.88C33.3048 1446.76 33.4737 1446.69 33.6499 1446.69H38.0233C38.39 1446.69 38.6874 1446.39 38.6874 1446.02V1441.65C38.6874 1441.47 38.7574 1441.3 38.8818 1441.18L42.8663 1437.2C43.2847 1436.78 44 1437.07 44 1437.67V1451.34C44 1451.7 43.7026 1452 43.3359 1452H29.6654Z" fill="#6C6C6C"/>
</g>
<g clip-path="url(#clip11_884_12004)">
<path d="M39.3449 1472C39.9273 1472 40.2191 1472.7 39.8072 1473.12L35.884 1477.04C35.7615 1477.16 35.5951 1477.23 35.4217 1477.23H25.8847C25.5236 1477.23 25.2309 1477.52 25.2309 1477.88V1487.42C25.2309 1487.6 25.162 1487.76 25.0393 1487.88L21.1162 1491.81C20.7043 1492.22 20 1491.93 20 1491.34V1472.65C20 1472.29 20.2927 1472 20.6539 1472H39.3449Z" fill="#6C6C6C"/>
<path d="M24.6552 1496C24.0726 1496 23.7809 1495.3 24.1928 1494.88L28.116 1490.96C28.2386 1490.84 28.4049 1490.77 28.5783 1490.77H38.1153C38.4764 1490.77 38.7692 1490.48 38.7692 1490.12V1480.58C38.7692 1480.4 38.8381 1480.24 38.9606 1480.12L42.8837 1476.19C43.2957 1475.78 44 1476.07 44 1476.66V1495.35C44 1495.71 43.7072 1496 43.3461 1496H24.6552Z" fill="#5D5D5D" fill-opacity="0.5"/>
<path d="M29 1481.75C29 1481.34 29.3359 1481 29.75 1481H34.25C34.6642 1481 35 1481.34 35 1481.75V1486.25C35 1486.66 34.6642 1487 34.25 1487H29.75C29.3359 1487 29 1486.66 29 1486.25V1481.75Z" fill="#6C6C6C"/>
</g>
<g clip-path="url(#clip12_884_12004)">
<path d="M24.6552 1540C24.0726 1540 23.7809 1539.3 24.1928 1538.88L28.116 1534.96C28.2386 1534.84 28.4049 1534.77 28.5783 1534.77H38.1153C38.4764 1534.77 38.7692 1534.48 38.7692 1534.12V1524.58C38.7692 1524.4 38.8381 1524.24 38.9606 1524.12L42.8837 1520.19C43.2957 1519.78 44 1520.07 44 1520.66V1539.35C44 1539.71 43.7072 1540 43.3461 1540H24.6552Z" fill="#6C6C6C"/>
<path d="M39.3449 1516C39.9273 1516 40.2191 1516.7 39.8072 1517.12L35.884 1521.04C35.7615 1521.16 35.5951 1521.23 35.4217 1521.23H25.8847C25.5236 1521.23 25.2309 1521.52 25.2309 1521.88V1531.42C25.2309 1531.6 25.162 1531.76 25.0393 1531.88L21.1162 1535.81C20.7043 1536.22 20 1535.93 20 1535.34V1516.65C20 1516.29 20.2927 1516 20.6539 1516H39.3449Z" fill="#5D5D5D" fill-opacity="0.5"/>
<path d="M29 1525.75C29 1525.34 29.3359 1525 29.75 1525H34.25C34.6642 1525 35 1525.34 35 1525.75V1530.25C35 1530.66 34.6642 1531 34.25 1531H29.75C29.3359 1531 29 1530.66 29 1530.25V1525.75Z" fill="#6C6C6C"/>
</g>
<defs>
<filter id="filter0_d_884_12004" x="16" y="324" width="32" height="32" filterUnits="userSpaceOnUse" color-interpolation-filters="sRGB">
<feFlood flood-opacity="0" result="BackgroundImageFix"/>
<feColorMatrix in="SourceAlpha" type="matrix" values="0 0 0 0 0 0 0 0 0 0 0 0 0 0 0 0 0 0 127 0" result="hardAlpha"/>
<feOffset/>
<feGaussianBlur stdDeviation="2"/>
<feComposite in2="hardAlpha" operator="out"/>
<feColorMatrix type="matrix" values="0 0 0 0 1 0 0 0 0 1 0 0 0 0 1 0 0 0 1 0"/>
<feBlend mode="normal" in2="BackgroundImageFix" result="effect1_dropShadow_884_12004"/>
<feBlend mode="normal" in="SourceGraphic" in2="effect1_dropShadow_884_12004" result="shape"/>
</filter>
<filter id="filter1_d_884_12004" x="16" y="414" width="32" height="29" filterUnits="userSpaceOnUse" color-interpolation-filters="sRGB">
<feFlood flood-opacity="0" result="BackgroundImageFix"/>
<feColorMatrix in="SourceAlpha" type="matrix" values="0 0 0 0 0 0 0 0 0 0 0 0 0 0 0 0 0 0 127 0" result="hardAlpha"/>
<feOffset/>
<feGaussianBlur stdDeviation="2"/>
<feComposite in2="hardAlpha" operator="out"/>
<feColorMatrix type="matrix" values="0 0 0 0 1 0 0 0 0 1 0 0 0 0 1 0 0 0 1 0"/>
<feBlend mode="normal" in2="BackgroundImageFix" result="effect1_dropShadow_884_12004"/>
<feBlend mode="normal" in="SourceGraphic" in2="effect1_dropShadow_884_12004" result="shape"/>
</filter>
<filter id="filter2_d_884_12004" x="16" y="500" width="32" height="32" filterUnits="userSpaceOnUse" color-interpolation-filters="sRGB">
<feFlood flood-opacity="0" result="BackgroundImageFix"/>
<feColorMatrix in="SourceAlpha" type="matrix" values="0 0 0 0 0 0 0 0 0 0 0 0 0 0 0 0 0 0 127 0" result="hardAlpha"/>
<feOffset/>
<feGaussianBlur stdDeviation="2"/>
<feComposite in2="hardAlpha" operator="out"/>
<feColorMatrix type="matrix" values="0 0 0 0 1 0 0 0 0 1 0 0 0 0 1 0 0 0 1 0"/>
<feBlend mode="normal" in2="BackgroundImageFix" result="effect1_dropShadow_884_12004"/>
<feBlend mode="normal" in="SourceGraphic" in2="effect1_dropShadow_884_12004" result="shape"/>
</filter>
<filter id="filter3_d_884_12004" x="16" y="588" width="32" height="32" filterUnits="userSpaceOnUse" color-interpolation-filters="sRGB">
<feFlood flood-opacity="0" result="BackgroundImageFix"/>
<feColorMatrix in="SourceAlpha" type="matrix" values="0 0 0 0 0 0 0 0 0 0 0 0 0 0 0 0 0 0 127 0" result="hardAlpha"/>
<feOffset/>
<feGaussianBlur stdDeviation="2"/>
<feComposite in2="hardAlpha" operator="out"/>
<feColorMatrix type="matrix" values="0 0 0 0 1 0 0 0 0 1 0 0 0 0 1 0 0 0 1 0"/>
<feBlend mode="normal" in2="BackgroundImageFix" result="effect1_dropShadow_884_12004"/>
<feBlend mode="normal" in="SourceGraphic" in2="effect1_dropShadow_884_12004" result="shape"/>
</filter>
<filter id="filter4_d_884_12004" x="20" y="856" width="28" height="28" filterUnits="userSpaceOnUse" color-interpolation-filters="sRGB">
<feFlood flood-opacity="0" result="BackgroundImageFix"/>
<feColorMatrix in="SourceAlpha" type="matrix" values="0 0 0 0 0 0 0 0 0 0 0 0 0 0 0 0 0 0 127 0" result="hardAlpha"/>
<feOffset/>
<feGaussianBlur stdDeviation="2"/>
<feComposite in2="hardAlpha" operator="out"/>
<feColorMatrix type="matrix" values="0 0 0 0 1 0 0 0 0 1 0 0 0 0 1 0 0 0 1 0"/>
<feBlend mode="normal" in2="BackgroundImageFix" result="effect1_dropShadow_884_12004"/>
<feBlend mode="normal" in="SourceGraphic" in2="effect1_dropShadow_884_12004" result="shape"/>
</filter>
<filter id="filter5_d_884_12004" x="16" y="852" width="28" height="28" filterUnits="userSpaceOnUse" color-interpolation-filters="sRGB">
<feFlood flood-opacity="0" result="BackgroundImageFix"/>
<feColorMatrix in="SourceAlpha" type="matrix" values="0 0 0 0 0 0 0 0 0 0 0 0 0 0 0 0 0 0 127 0" result="hardAlpha"/>
<feOffset/>
<feGaussianBlur stdDeviation="2"/>
<feComposite in2="hardAlpha" operator="out"/>
<feColorMatrix type="matrix" values="0 0 0 0 1 0 0 0 0 1 0 0 0 0 1 0 0 0 1 0"/>
<feBlend mode="normal" in2="BackgroundImageFix" result="effect1_dropShadow_884_12004"/>
<feBlend mode="normal" in="SourceGraphic" in2="effect1_dropShadow_884_12004" result="shape"/>
</filter>
<filter id="filter6_d_884_12004" x="25" y="861" width="14" height="14" filterUnits="userSpaceOnUse" color-interpolation-filters="sRGB">
<feFlood flood-opacity="0" result="BackgroundImageFix"/>
<feColorMatrix in="SourceAlpha" type="matrix" values="0 0 0 0 0 0 0 0 0 0 0 0 0 0 0 0 0 0 127 0" result="hardAlpha"/>
<feOffset/>
<feGaussianBlur stdDeviation="2"/>
<feComposite in2="hardAlpha" operator="out"/>
<feColorMatrix type="matrix" values="0 0 0 0 1 0 0 0 0 1 0 0 0 0 1 0 0 0 1 0"/>
<feBlend mode="normal" in2="BackgroundImageFix" result="effect1_dropShadow_884_12004"/>
<feBlend mode="normal" in="SourceGraphic" in2="effect1_dropShadow_884_12004" result="shape"/>
</filter>
<filter id="filter7_d_884_12004" x="16" y="940" width="28" height="28" filterUnits="userSpaceOnUse" color-interpolation-filters="sRGB">
<feFlood flood-opacity="0" result="BackgroundImageFix"/>
<feColorMatrix in="SourceAlpha" type="matrix" values="0 0 0 0 0 0 0 0 0 0 0 0 0 0 0 0 0 0 127 0" result="hardAlpha"/>
<feOffset/>
<feGaussianBlur stdDeviation="2"/>
<feComposite in2="hardAlpha" operator="out"/>
<feColorMatrix type="matrix" values="0 0 0 0 1 0 0 0 0 1 0 0 0 0 1 0 0 0 1 0"/>
<feBlend mode="normal" in2="BackgroundImageFix" result="effect1_dropShadow_884_12004"/>
<feBlend mode="normal" in="SourceGraphic" in2="effect1_dropShadow_884_12004" result="shape"/>
</filter>
<filter id="filter8_d_884_12004" x="20" y="944" width="28" height="28" filterUnits="userSpaceOnUse" color-interpolation-filters="sRGB">
<feFlood flood-opacity="0" result="BackgroundImageFix"/>
<feColorMatrix in="SourceAlpha" type="matrix" values="0 0 0 0 0 0 0 0 0 0 0 0 0 0 0 0 0 0 127 0" result="hardAlpha"/>
<feOffset/>
<feGaussianBlur stdDeviation="2"/>
<feComposite in2="hardAlpha" operator="out"/>
<feColorMatrix type="matrix" values="0 0 0 0 1 0 0 0 0 1 0 0 0 0 1 0 0 0 1 0"/>
<feBlend mode="normal" in2="BackgroundImageFix" result="effect1_dropShadow_884_12004"/>
<feBlend mode="normal" in="SourceGraphic" in2="effect1_dropShadow_884_12004" result="shape"/>
</filter>
<filter id="filter9_d_884_12004" x="25" y="949" width="14" height="14" filterUnits="userSpaceOnUse" color-interpolation-filters="sRGB">
<feFlood flood-opacity="0" result="BackgroundImageFix"/>
<feColorMatrix in="SourceAlpha" type="matrix" values="0 0 0 0 0 0 0 0 0 0 0 0 0 0 0 0 0 0 127 0" result="hardAlpha"/>
<feOffset/>
<feGaussianBlur stdDeviation="2"/>
<feComposite in2="hardAlpha" operator="out"/>
<feColorMatrix type="matrix" values="0 0 0 0 1 0 0 0 0 1 0 0 0 0 1 0 0 0 1 0"/>
<feBlend mode="normal" in2="BackgroundImageFix" result="effect1_dropShadow_884_12004"/>
<feBlend mode="normal" in="SourceGraphic" in2="effect1_dropShadow_884_12004" result="shape"/>
</filter>
<filter id="filter10_d_884_12004" x="16" y="1028" width="23" height="23" filterUnits="userSpaceOnUse" color-interpolation-filters="sRGB">
<feFlood flood-opacity="0" result="BackgroundImageFix"/>
<feColorMatrix in="SourceAlpha" type="matrix" values="0 0 0 0 0 0 0 0 0 0 0 0 0 0 0 0 0 0 127 0" result="hardAlpha"/>
<feOffset/>
<feGaussianBlur stdDeviation="2"/>
<feComposite in2="hardAlpha" operator="out"/>
<feColorMatrix type="matrix" values="0 0 0 0 1 0 0 0 0 1 0 0 0 0 1 0 0 0 1 0"/>
<feBlend mode="normal" in2="BackgroundImageFix" result="effect1_dropShadow_884_12004"/>
<feBlend mode="normal" in="SourceGraphic" in2="effect1_dropShadow_884_12004" result="shape"/>
</filter>
<filter id="filter11_d_884_12004" x="16" y="1028" width="32" height="32" filterUnits="userSpaceOnUse" color-interpolation-filters="sRGB">
<feFlood flood-opacity="0" result="BackgroundImageFix"/>
<feColorMatrix in="SourceAlpha" type="matrix" values="0 0 0 0 0 0 0 0 0 0 0 0 0 0 0 0 0 0 127 0" result="hardAlpha"/>
<feOffset/>
<feGaussianBlur stdDeviation="2"/>
<feComposite in2="hardAlpha" operator="out"/>
<feColorMatrix type="matrix" values="0 0 0 0 1 0 0 0 0 1 0 0 0 0 1 0 0 0 1 0"/>
<feBlend mode="normal" in2="BackgroundImageFix" result="effect1_dropShadow_884_12004"/>
<feBlend mode="normal" in="SourceGraphic" in2="effect1_dropShadow_884_12004" result="shape"/>
</filter>
<filter id="filter12_d_884_12004" x="25" y="1037" width="23" height="23" filterUnits="userSpaceOnUse" color-interpolation-filters="sRGB">
<feFlood flood-opacity="0" result="BackgroundImageFix"/>
<feColorMatrix in="SourceAlpha" type="matrix" values="0 0 0 0 0 0 0 0 0 0 0 0 0 0 0 0 0 0 127 0" result="hardAlpha"/>
<feOffset/>
<feGaussianBlur stdDeviation="2"/>
<feComposite in2="hardAlpha" operator="out"/>
<feColorMatrix type="matrix" values="0 0 0 0 1 0 0 0 0 1 0 0 0 0 1 0 0 0 1 0"/>
<feBlend mode="normal" in2="BackgroundImageFix" result="effect1_dropShadow_884_12004"/>
<feBlend mode="normal" in="SourceGraphic" in2="effect1_dropShadow_884_12004" result="shape"/>
</filter>
<filter id="filter13_d_884_12004" x="16" y="1116" width="32" height="32" filterUnits="userSpaceOnUse" color-interpolation-filters="sRGB">
<feFlood flood-opacity="0" result="BackgroundImageFix"/>
<feColorMatrix in="SourceAlpha" type="matrix" values="0 0 0 0 0 0 0 0 0 0 0 0 0 0 0 0 0 0 127 0" result="hardAlpha"/>
<feOffset/>
<feGaussianBlur stdDeviation="2"/>
<feComposite in2="hardAlpha" operator="out"/>
<feColorMatrix type="matrix" values="0 0 0 0 1 0 0 0 0 1 0 0 0 0 1 0 0 0 1 0"/>
<feBlend mode="normal" in2="BackgroundImageFix" result="effect1_dropShadow_884_12004"/>
<feBlend mode="normal" in="SourceGraphic" in2="effect1_dropShadow_884_12004" result="shape"/>
</filter>
<filter id="filter14_d_884_12004" x="16" y="1204" width="32" height="32" filterUnits="userSpaceOnUse" color-interpolation-filters="sRGB">
<feFlood flood-opacity="0" result="BackgroundImageFix"/>
<feColorMatrix in="SourceAlpha" type="matrix" values="0 0 0 0 0 0 0 0 0 0 0 0 0 0 0 0 0 0 127 0" result="hardAlpha"/>
<feOffset/>
<feGaussianBlur stdDeviation="2"/>
<feComposite in2="hardAlpha" operator="out"/>
<feColorMatrix type="matrix" values="0 0 0 0 1 0 0 0 0 1 0 0 0 0 1 0 0 0 1 0"/>
<feBlend mode="normal" in2="BackgroundImageFix" result="effect1_dropShadow_884_12004"/>
<feBlend mode="normal" in="SourceGraphic" in2="effect1_dropShadow_884_12004" result="shape"/>
</filter>
<linearGradient id="paint0_linear_884_12004" x1="32" y1="680" x2="32" y2="690" gradientUnits="userSpaceOnUse">
<stop stop-color="#FF0000"/>
<stop offset="0.69" stop-color="#6A168F"/>
</linearGradient>
<linearGradient id="paint1_linear_884_12004" x1="25.9782" y1="682" x2="25.9782" y2="693" gradientUnits="userSpaceOnUse">
<stop stop-color="#FF0000"/>
<stop offset="0.69" stop-color="#6A168F"/>
</linearGradient>
<linearGradient id="paint2_linear_884_12004" x1="38.0212" y1="682" x2="38.0212" y2="693" gradientUnits="userSpaceOnUse">
<stop stop-color="#FF0000"/>
<stop offset="0.69" stop-color="#6A168F"/>
</linearGradient>
<clipPath id="clip0_884_12004">
<rect width="24" height="24" fill="white" transform="translate(20 20)"/>
</clipPath>
<clipPath id="clip1_884_12004">
<rect width="24" height="24" fill="white" transform="translate(20 64)"/>
</clipPath>
<clipPath id="clip2_884_12004">
<rect width="24" height="24" fill="white" transform="translate(20 108)"/>
</clipPath>
<clipPath id="clip3_884_12004">
<rect width="24" height="24" fill="white" transform="translate(20 240)"/>
</clipPath>
<clipPath id="clip4_884_12004">
<rect width="24" height="24" fill="white" transform="translate(20 372)"/>
</clipPath>
<clipPath id="clip5_884_12004">
<rect width="24" height="24" fill="white" transform="translate(20 548)"/>
</clipPath>
<clipPath id="clip6_884_12004">
<rect width="24" height="24" fill="white" transform="translate(20 680)"/>
</clipPath>
<clipPath id="clip7_884_12004">
<rect width="24" height="24" fill="white" transform="translate(20 812)"/>
</clipPath>
<clipPath id="clip8_884_12004">
<rect width="24" height="24" fill="white" transform="translate(20 900)"/>
</clipPath>
<clipPath id="clip9_884_12004">
<rect width="24" height="24" fill="white" transform="translate(20 988)"/>
</clipPath>
<clipPath id="clip10_884_12004">
<rect width="24" height="24" fill="white" transform="translate(20 1428)"/>
</clipPath>
<clipPath id="clip11_884_12004">
<rect width="24" height="24" fill="white" transform="translate(20 1472)"/>
</clipPath>
<clipPath id="clip12_884_12004">
<rect width="24" height="24" fill="white" transform="translate(20 1516)"/>
</clipPath>
</defs>
</svg>
