<svg width="24" height="24" viewBox="0 0 24 24" fill="none" xmlns="http://www.w3.org/2000/svg">
<path d="M10.8368 0C10.8368 0 11.5475 4.10809 10.9115 4.72006C10.2755 5.33202 5.24875 10.0331 5.24875 10.0331L3.572 8.16134L2 13.8724C2 13.8724 4.422 16.0791 5.5565 20.7925L12 24L21.236 17.0352L22 12.7638L20.166 10.9632C20.166 10.9632 20.5018 13.2779 19.6497 13.2779C18.7975 13.2779 17.252 9.73511 16.1245 9.73511C14.9972 9.73511 14.0023 10.0252 11.871 10.5188C10.1692 10.9131 9.5145 13.6922 9.3195 14.7964C9.27175 15.0676 9.38775 15.3414 9.6205 15.501L11.871 17.4322C11.871 17.4322 13.9788 16.0635 13.9788 15.1395C13.9788 14.4305 12.2098 14.4734 12.2098 13.1332C12.2098 12.3529 12.913 12.0421 13.8038 12.0421C16.2765 12.0421 17.244 14.9253 17.244 14.9253C15.4353 18.4064 11.993 20.6047 11.993 20.6047C11.993 20.6047 6.90925 17.1595 6.90925 15.0098C6.90925 9.07373 13.9085 7.49824 13.9085 7.49824L14.8365 4.46089L10.8368 0Z" fill="#F26C23"/>
</svg>
