<svg width="24" height="24" viewBox="0 0 24 24" fill="none" xmlns="http://www.w3.org/2000/svg">
<path d="M11.4999 16C12.3283 16 13 14.3846 13 13.0039C13 11.6232 12.3283 11 11.4999 11C10.6715 11 10 11.6232 10 13.0039C10 14.3846 10.6715 16 11.4999 16Z" fill="#8D62C4"/>
<path d="M12.4999 16C13.3283 16 14 14.3846 14 13.0039C14 11.6232 13.3283 11 12.4999 11C11.6715 11 11 11.6232 11 13.0039C11 14.3846 11.6715 16 12.4999 16Z" fill="#8D62C4"/>
<path fill-rule="evenodd" clip-rule="evenodd" d="M7.24844 6.46501H7.98632C9.16123 5.77073 10.5338 5.37201 12 5.37201C13.4663 5.37201 14.8388 5.77073 16.0138 6.46501H16.7516C16.7516 4.27901 16.7516 3.18909 15.3 1C17.8666 1.5465 23 4.71621 23 13.023C21.1699 13.7504 19.7204 15.6643 18.9681 16.8116C17.6532 19.3016 15.0262 21 12 21C8.97379 21 6.34677 19.3016 5.03191 16.8116C4.27962 15.6643 2.83011 13.7504 1 13.023C1 4.71621 6.13337 1.5465 8.7 1C7.24844 3.18909 7.24844 4.27901 7.24844 6.46501ZM16.1247 12.2582C16.1247 15.3407 14.2781 17.3951 12.0001 17.3951C9.72212 17.3951 7.87533 15.3407 7.87533 12.2582C7.87533 9.99465 9.79648 9.19818 12.0001 9.19818C14.2039 9.19818 16.1247 9.99465 16.1247 12.2582Z" fill="#8D62C4"/>
<path d="M18.166 21.9454C18.499 21.4187 18.6772 20.9097 18.9998 20.4254C19.413 19.8053 19.8261 19.1854 19.9568 18.4252C20.0036 18.153 20.2396 17.9044 20.4821 18.0365C20.668 18.1378 20.7829 18.2956 20.8956 18.4505C21.0718 18.6925 21.2426 18.9272 21.6703 18.9272C22.6426 18.9272 22.9992 18.9272 22.9992 19.9277C22.9992 20.8129 21.4359 22.4795 18.9962 22.8521C18.4502 22.9355 17.499 23 18.166 21.9454Z" fill="#8D62C4"/>
<path d="M4.99936 20.4254C5.322 20.9097 5.5 21.4184 5.83321 21.9454C6.5 23 5.549 22.9355 5.00297 22.8521C2.56334 22.4795 1 20.8129 1 19.9277C1 18.9272 1.35661 18.9272 2.32887 18.9272C2.75662 18.9272 2.92743 18.6925 3.10356 18.4505C3.21629 18.2956 3.33121 18.1378 3.51707 18.0365C3.75959 17.9044 3.99559 18.153 4.0424 18.4252C4.17314 19.1854 4.58618 19.8053 4.99936 20.4254Z" fill="#8D62C4"/>
</svg>
