<svg width="32" height="32" viewBox="0 0 32 32" fill="none" xmlns="http://www.w3.org/2000/svg">
<g opacity="0.2" filter="url(#filter0_d_1483_18320)">
<path d="M18.3346 4C18.9262 4 19.2225 4.7153 18.8042 5.13365L14.8197 9.11811C14.6952 9.24265 14.5263 9.31262 14.3502 9.31262H9.9767C9.60994 9.31262 9.31262 9.60994 9.31262 9.9767V14.3502C9.31262 14.5263 9.24265 14.6952 9.11811 14.8197L5.13365 18.8042C4.7153 19.2225 4 18.9262 4 18.3346V4.66408C4 4.29732 4.29732 4 4.66408 4H18.3346Z" fill="#DBDBDB"/>
</g>
<g filter="url(#filter1_d_1483_18320)">
<path d="M23.8048 4.19527C23.9297 4.07024 24.0993 4 24.2761 4H27.3333C27.7015 4 28 4.29848 28 4.66667V7.72385C28 7.90067 27.9297 8.07024 27.8048 8.19527L8.19527 27.8048C8.07024 27.9297 7.90067 28 7.72385 28H4.66667C4.29848 28 4 27.7015 4 27.3333V24.2761C4 24.0993 4.07024 23.9297 4.19527 23.8048L23.8048 4.19527Z" fill="#DBDBDB"/>
</g>
<g opacity="0.2" filter="url(#filter2_d_1483_18320)">
<path d="M13.6654 28C13.0738 28 12.7775 27.2847 13.1958 26.8663L17.1804 22.8818C17.3048 22.7574 17.4737 22.6874 17.6499 22.6874H22.0233C22.39 22.6874 22.6874 22.39 22.6874 22.0233V17.6499C22.6874 17.4737 22.7574 17.3048 22.8818 17.1804L26.8663 13.1958C27.2847 12.7775 28 13.0738 28 13.6654V27.3359C28 27.7026 27.7026 28 27.3359 28H13.6654Z" fill="#DBDBDB"/>
</g>
<defs>
<filter id="filter0_d_1483_18320" x="0" y="0" width="23" height="23" filterUnits="userSpaceOnUse" color-interpolation-filters="sRGB">
<feFlood flood-opacity="0" result="BackgroundImageFix"/>
<feColorMatrix in="SourceAlpha" type="matrix" values="0 0 0 0 0 0 0 0 0 0 0 0 0 0 0 0 0 0 127 0" result="hardAlpha"/>
<feOffset/>
<feGaussianBlur stdDeviation="2"/>
<feComposite in2="hardAlpha" operator="out"/>
<feColorMatrix type="matrix" values="0 0 0 0 1 0 0 0 0 1 0 0 0 0 1 0 0 0 1 0"/>
<feBlend mode="normal" in2="BackgroundImageFix" result="effect1_dropShadow_1483_18320"/>
<feBlend mode="normal" in="SourceGraphic" in2="effect1_dropShadow_1483_18320" result="shape"/>
</filter>
<filter id="filter1_d_1483_18320" x="0" y="0" width="32" height="32" filterUnits="userSpaceOnUse" color-interpolation-filters="sRGB">
<feFlood flood-opacity="0" result="BackgroundImageFix"/>
<feColorMatrix in="SourceAlpha" type="matrix" values="0 0 0 0 0 0 0 0 0 0 0 0 0 0 0 0 0 0 127 0" result="hardAlpha"/>
<feOffset/>
<feGaussianBlur stdDeviation="2"/>
<feComposite in2="hardAlpha" operator="out"/>
<feColorMatrix type="matrix" values="0 0 0 0 1 0 0 0 0 1 0 0 0 0 1 0 0 0 1 0"/>
<feBlend mode="normal" in2="BackgroundImageFix" result="effect1_dropShadow_1483_18320"/>
<feBlend mode="normal" in="SourceGraphic" in2="effect1_dropShadow_1483_18320" result="shape"/>
</filter>
<filter id="filter2_d_1483_18320" x="9" y="9" width="23" height="23" filterUnits="userSpaceOnUse" color-interpolation-filters="sRGB">
<feFlood flood-opacity="0" result="BackgroundImageFix"/>
<feColorMatrix in="SourceAlpha" type="matrix" values="0 0 0 0 0 0 0 0 0 0 0 0 0 0 0 0 0 0 127 0" result="hardAlpha"/>
<feOffset/>
<feGaussianBlur stdDeviation="2"/>
<feComposite in2="hardAlpha" operator="out"/>
<feColorMatrix type="matrix" values="0 0 0 0 1 0 0 0 0 1 0 0 0 0 1 0 0 0 1 0"/>
<feBlend mode="normal" in2="BackgroundImageFix" result="effect1_dropShadow_1483_18320"/>
<feBlend mode="normal" in="SourceGraphic" in2="effect1_dropShadow_1483_18320" result="shape"/>
</filter>
</defs>
</svg>
