<svg width="24" height="24" viewBox="0 0 24 24" fill="none" xmlns="http://www.w3.org/2000/svg">
<g clip-path="url(#clip0_1293_17861)">
<path d="M14.3346 0C14.9262 0 15.2225 0.715305 14.8042 1.13365L10.8197 5.11811C10.6952 5.24265 10.5263 5.31262 10.3502 5.31262H5.9767C5.60994 5.31262 5.31262 5.60994 5.31262 5.9767V10.3502C5.31262 10.5263 5.24265 10.6952 5.11811 10.8197L1.13365 14.8042C0.715305 15.2225 0 14.9262 0 14.3346V0.664078C0 0.297321 0.297321 0 0.664078 0H14.3346Z" fill="#6C6C6C"/>
<path d="M19.8048 0.195267C19.9297 0.0702401 20.0993 0 20.2761 0H23.3333C23.7015 0 24 0.29848 24 0.666667V3.72385C24 3.90067 23.9297 4.07024 23.8048 4.19527L4.19527 23.8048C4.07024 23.9297 3.90067 24 3.72385 24H0.666667C0.29848 24 0 23.7015 0 23.3333V20.2761C0 20.0993 0.0702401 19.9297 0.195267 19.8048L19.8048 0.195267Z" fill="#5D5D5D" fill-opacity="0.5"/>
<path d="M9.6654 24C9.07378 24 8.77749 23.2847 9.19583 22.8663L13.1804 18.8818C13.3048 18.7574 13.4737 18.6874 13.6499 18.6874H18.0233C18.39 18.6874 18.6874 18.39 18.6874 18.0233V13.6499C18.6874 13.4737 18.7574 13.3048 18.8818 13.1804L22.8663 9.19583C23.2847 8.77749 24 9.07378 24 9.6654V23.3359C24 23.7026 23.7026 24 23.3359 24H9.6654Z" fill="#6C6C6C"/>
</g>
<defs>
<clipPath id="clip0_1293_17861">
<rect width="24" height="24" fill="white"/>
</clipPath>
</defs>
</svg>
