<svg width="24" height="24" viewBox="0 0 24 24" fill="none" xmlns="http://www.w3.org/2000/svg">
<g clip-path="url(#clip0_954_12661)">
<path opacity="0.2" d="M4.65517 24C4.07264 24 3.78092 23.2957 4.19282 22.8837L8.11595 18.9606C8.23858 18.8381 8.40489 18.7692 8.57831 18.7692H18.1153C18.4764 18.7692 18.7692 18.4764 18.7692 18.1153V8.57831C18.7692 8.40489 18.8381 8.23858 18.9606 8.11595L22.8837 4.19282C23.2957 3.78092 24 4.07264 24 4.65517V23.3461C24 23.7072 23.7072 24 23.3461 24H4.65517Z" fill="#DBDBDB"/>
<path d="M19.3449 0C19.9273 0 20.2191 0.704296 19.8072 1.1162L15.884 5.03934C15.7615 5.16197 15.5951 5.23086 15.4217 5.23086H5.88471C5.5236 5.23086 5.23086 5.5236 5.23086 5.88471V15.4217C5.23086 15.5951 5.16197 15.7615 5.03934 15.884L1.1162 19.8072C0.704296 20.2191 0 19.9273 0 19.3449V0.653857C0 0.292745 0.292745 0 0.653857 0H19.3449Z" fill="#DBDBDB"/>
<path opacity="0.2" d="M9 9.75C9 9.33585 9.33585 9 9.75 9H14.25C14.6642 9 15 9.33585 15 9.75V14.25C15 14.6642 14.6642 15 14.25 15H9.75C9.33585 15 9 14.6642 9 14.25V9.75Z" fill="#DBDBDB"/>
</g>
<defs>
<clipPath id="clip0_954_12661">
<rect width="24" height="24" fill="white"/>
</clipPath>
</defs>
</svg>
