<svg width="24" height="24" viewBox="0 0 24 24" fill="none" xmlns="http://www.w3.org/2000/svg">
<path fill-rule="evenodd" clip-rule="evenodd" d="M0 12.5C2.21236 8.05143 6.75491 5 12 5C17.2451 5 21.7876 8.05143 24 12.5C21.7876 16.9486 17.2451 20 12 20C6.75491 20 2.21236 16.9486 0 12.5ZM12 16.25C12.5014 16.25 12.9979 16.153 13.4612 15.9645C13.9244 15.7761 14.3453 15.4999 14.6999 15.1516C15.0544 14.8034 15.3357 14.39 15.5275 13.9351C15.7194 13.4801 15.8182 12.9925 15.8182 12.5C15.8182 12.0075 15.7194 11.5199 15.5275 11.0649C15.3357 10.61 15.0544 10.1966 14.6999 9.84835C14.3453 9.50013 13.9244 9.22391 13.4612 9.03545C12.9979 8.847 12.5014 8.75 12 8.75C10.9874 8.75 10.0162 9.14509 9.30014 9.84835C8.58409 10.5516 8.18182 11.5054 8.18182 12.5C8.18182 13.4946 8.58409 14.4484 9.30014 15.1516C10.0162 15.8549 10.9874 16.25 12 16.25Z" fill="#DBDBDB"/>
</svg>
