<svg width="24" height="24" viewBox="0 0 24 24" fill="none" xmlns="http://www.w3.org/2000/svg">
<g clip-path="url(#clip0_940_21930)">
<path d="M14 4.5C13.5556 2.44118 12 0 12 0C12 0 10.4444 2.44118 10 4.5C10.4444 6.55882 12 10 12 10C12 10 13.5556 6.55882 14 4.5Z" fill="url(#paint0_linear_940_21930)"/>
<path d="M5.14098 5.90323C3.50578 7.19355 1.87058 10.7419 4.05084 13C4.47905 10.2124 5.07547 9.336 5.84003 8.21239C6.04879 7.90581 6.26987 7.58077 6.5036 7.19355L8.95639 9.12903C8.95639 9.12903 8 6.5 8.41133 4.6129C6.77613 3.32258 5 2 5 2L5.5 4L5.14098 5.90323Z" fill="url(#paint1_linear_940_21930)"/>
<path d="M18.8584 5.90323C20.4936 7.19355 22.1288 10.7419 19.9485 13C19.5203 10.2124 18.9239 9.336 18.1593 8.21239C17.9505 7.90581 17.7295 7.58077 17.4957 7.19355L15.043 9.12903C15.043 9.12903 15.999 6.5 15.588 4.6129C17.2232 3.32258 18.9994 2 18.9994 2L18.4994 4L18.8584 5.90323Z" fill="url(#paint2_linear_940_21930)"/>
<path fill-rule="evenodd" clip-rule="evenodd" d="M6.86631 9C4.81283 11.1818 5.06952 13.3636 5.06952 13.3636C3.52941 11.1818 2.05348 10.6364 0 10.6364C0.897071 12.5426 1.48702 14.5531 3.15987 16.5538C6 19 7.45935 21.6962 7.89305 24V18.8182C7.89305 18.8182 9.68984 20.4545 12 21.2727C14.3102 20.4545 16.107 18.8182 16.107 18.8182V24C16.5406 21.6962 18 19 20.8401 16.5538C22.513 14.5531 23.1029 12.5426 24 10.6364C21.9465 10.6364 20.4706 11.1818 18.9305 13.3636C18.9305 13.3636 19.1872 11.1818 17.1337 9C17.1337 9 15.8503 11.7273 12 12.8182C8.14973 11.7273 6.86631 9 6.86631 9ZM6.46948 13.1877C8.84986 14.0481 10.0032 15.2474 10.2486 17.1247C7.13213 16.7336 6.46948 14.9347 6.46948 13.1877ZM17.5305 13.1877C15.1501 14.0481 13.9968 15.2474 13.7514 17.1247C16.8679 16.7336 17.5305 14.9347 17.5305 13.1877Z" fill="#6A168F"/>
</g>
<defs>
<linearGradient id="paint0_linear_940_21930" x1="12" y1="0" x2="12" y2="10" gradientUnits="userSpaceOnUse">
<stop stop-color="#FF0000"/>
<stop offset="0.69" stop-color="#6A168F"/>
</linearGradient>
<linearGradient id="paint1_linear_940_21930" x1="5.9782" y1="2" x2="5.9782" y2="13" gradientUnits="userSpaceOnUse">
<stop stop-color="#FF0000"/>
<stop offset="0.69" stop-color="#6A168F"/>
</linearGradient>
<linearGradient id="paint2_linear_940_21930" x1="18.0212" y1="2" x2="18.0212" y2="13" gradientUnits="userSpaceOnUse">
<stop stop-color="#FF0000"/>
<stop offset="0.69" stop-color="#6A168F"/>
</linearGradient>
<clipPath id="clip0_940_21930">
<rect width="24" height="24" fill="white"/>
</clipPath>
</defs>
</svg>
