<svg width="24" height="24" viewBox="0 0 24 24" fill="none" xmlns="http://www.w3.org/2000/svg">
<g clip-path="url(#clip0_884_12005)">
<path d="M18 12.606C18 13.596 17.1972 14.4 16.2048 14.4H16.1952C15.2028 14.4 14.4 13.596 14.4 12.606V12.594C14.4 11.604 15.2028 10.8 16.1952 10.8H16.2048C17.1972 10.8 18 11.604 18 12.594V12.606ZM13.2 9.6096C13.2 10.2672 12.6672 10.8 12.0096 10.8H11.9904C11.3328 10.8 10.8 10.2672 10.8 9.6096V9.5904C10.8 8.9328 11.3328 8.4 11.9904 8.4H12.0096C12.6672 8.4 13.2 8.9328 13.2 9.5904V9.6096ZM13.2 15.612C13.2 16.2684 12.6684 16.8 12.012 16.8H11.988C11.3316 16.8 10.8 16.2684 10.8 15.612V15.588C10.8 14.9316 11.3316 14.4 11.988 14.4H12.012C12.6684 14.4 13.2 14.9316 13.2 15.588V15.612ZM9.6 12.6168C9.6 13.602 8.8008 14.4 7.8168 14.4H7.7832C6.7992 14.4 6 13.602 6 12.6168V12.5832C6 11.5992 6.7992 10.8 7.7832 10.8H7.8168C8.8008 10.8 9.6 11.5992 9.6 12.5832V12.6168ZM24 4.8L15.6 0V2.4L19.2 6L16.8 8.4L12 3.6L7.2 8.4L4.8 6L8.4 2.4V0L0 4.8L4.8 10.8L0 15.6L3.6 20.4V15.6H6L7.2 21.6L9.6 24V19.2L12 21.6L14.4 19.2V24L16.8 21.6L18 15.6H20.4V20.4L24 15.6L19.2 10.8L24 4.8Z" fill="#5832A8"/>
</g>
<defs>
<clipPath id="clip0_884_12005">
<rect width="24" height="24" fill="white"/>
</clipPath>
</defs>
</svg>
