<svg width="32" height="32" viewBox="0 0 32 32" fill="none" xmlns="http://www.w3.org/2000/svg">
<g opacity="0.2" filter="url(#filter0_d_1483_18312)">
<path d="M23.3449 4C23.9273 4 24.2191 4.7043 23.8072 5.1162L19.884 9.03934C19.7615 9.16197 19.5951 9.23086 19.4217 9.23086H9.88471C9.5236 9.23086 9.23086 9.5236 9.23086 9.88471V19.4217C9.23086 19.5951 9.16197 19.7615 9.03934 19.884L5.1162 23.8072C4.7043 24.2191 4 23.9273 4 23.3449V4.65386C4 4.29274 4.29274 4 4.65386 4H23.3449Z" fill="#DBDBDB"/>
</g>
<g filter="url(#filter1_d_1483_18312)">
<path d="M8.65517 28C8.07264 28 7.78092 27.2957 8.19282 26.8837L12.116 22.9606C12.2386 22.8381 12.4049 22.7692 12.5783 22.7692H22.1153C22.4764 22.7692 22.7692 22.4764 22.7692 22.1153V12.5783C22.7692 12.4049 22.8381 12.2386 22.9606 12.116L26.8837 8.19282C27.2957 7.78092 28 8.07264 28 8.65517V27.3461C28 27.7072 27.7072 28 27.3461 28H8.65517Z" fill="#DBDBDB"/>
</g>
<g opacity="0.2" filter="url(#filter2_d_1483_18312)">
<path d="M13 13.75C13 13.3359 13.3359 13 13.75 13H18.25C18.6642 13 19 13.3359 19 13.75V18.25C19 18.6642 18.6642 19 18.25 19H13.75C13.3359 19 13 18.6642 13 18.25V13.75Z" fill="#DBDBDB"/>
</g>
<defs>
<filter id="filter0_d_1483_18312" x="0" y="0" width="28" height="28" filterUnits="userSpaceOnUse" color-interpolation-filters="sRGB">
<feFlood flood-opacity="0" result="BackgroundImageFix"/>
<feColorMatrix in="SourceAlpha" type="matrix" values="0 0 0 0 0 0 0 0 0 0 0 0 0 0 0 0 0 0 127 0" result="hardAlpha"/>
<feOffset/>
<feGaussianBlur stdDeviation="2"/>
<feComposite in2="hardAlpha" operator="out"/>
<feColorMatrix type="matrix" values="0 0 0 0 1 0 0 0 0 1 0 0 0 0 1 0 0 0 1 0"/>
<feBlend mode="normal" in2="BackgroundImageFix" result="effect1_dropShadow_1483_18312"/>
<feBlend mode="normal" in="SourceGraphic" in2="effect1_dropShadow_1483_18312" result="shape"/>
</filter>
<filter id="filter1_d_1483_18312" x="4" y="4" width="28" height="28" filterUnits="userSpaceOnUse" color-interpolation-filters="sRGB">
<feFlood flood-opacity="0" result="BackgroundImageFix"/>
<feColorMatrix in="SourceAlpha" type="matrix" values="0 0 0 0 0 0 0 0 0 0 0 0 0 0 0 0 0 0 127 0" result="hardAlpha"/>
<feOffset/>
<feGaussianBlur stdDeviation="2"/>
<feComposite in2="hardAlpha" operator="out"/>
<feColorMatrix type="matrix" values="0 0 0 0 1 0 0 0 0 1 0 0 0 0 1 0 0 0 1 0"/>
<feBlend mode="normal" in2="BackgroundImageFix" result="effect1_dropShadow_1483_18312"/>
<feBlend mode="normal" in="SourceGraphic" in2="effect1_dropShadow_1483_18312" result="shape"/>
</filter>
<filter id="filter2_d_1483_18312" x="9" y="9" width="14" height="14" filterUnits="userSpaceOnUse" color-interpolation-filters="sRGB">
<feFlood flood-opacity="0" result="BackgroundImageFix"/>
<feColorMatrix in="SourceAlpha" type="matrix" values="0 0 0 0 0 0 0 0 0 0 0 0 0 0 0 0 0 0 127 0" result="hardAlpha"/>
<feOffset/>
<feGaussianBlur stdDeviation="2"/>
<feComposite in2="hardAlpha" operator="out"/>
<feColorMatrix type="matrix" values="0 0 0 0 1 0 0 0 0 1 0 0 0 0 1 0 0 0 1 0"/>
<feBlend mode="normal" in2="BackgroundImageFix" result="effect1_dropShadow_1483_18312"/>
<feBlend mode="normal" in="SourceGraphic" in2="effect1_dropShadow_1483_18312" result="shape"/>
</filter>
</defs>
</svg>
