<svg width="24" height="24" viewBox="0 0 24 24" fill="none" xmlns="http://www.w3.org/2000/svg">
<path d="M7.48649 0C7.48649 0 13.7527 2.43293 13.7527 8.20517C13.7527 13.8005 4.77113 13.5278 4.77113 20.3808C4.77113 21.8364 5.76569 23.8396 5.76569 23.8396C5.76569 23.8396 2 21.4687 2 18.1606C2 12.5109 9.08175 14.7618 9.08175 5.08595C9.08175 1.48646 7.48649 0 7.48649 0ZM19.7883 11.3631C19.7883 13.4493 18.2083 16.8637 14.1725 16.8637C8.15782 16.8637 7.32481 19.6155 7.32481 19.6155C6.26572 15.6976 17.0584 13.1143 17.0584 7.25628C17.0584 4.58054 15.7695 3.11067 15.7695 3.11067C15.7695 3.11067 19.7883 5.9488 19.7883 11.3631ZM8.50206 21.5298C9.34258 19.0826 11.1339 18.5528 11.1339 18.5528C11.1339 18.5528 13.3456 19.3139 14.3149 19.3139C18.9839 19.3139 21.7865 13.5651 21.7865 13.5651C21.7865 13.5651 23.251 18.7826 18.5085 24C18.5085 24 15.7229 20.6604 12.2077 20.6604C10.0768 20.6604 8.50206 21.5298 8.50206 21.5298Z" fill="#ADD2ED"/>
</svg>
