<svg width="24" height="24" viewBox="0 0 24 24" fill="none" xmlns="http://www.w3.org/2000/svg">
<g clip-path="url(#clip0_884_12009)">
<path d="M12 0C18.6264 0 24 5.3736 24 12C24 18.6264 18.6264 24 12 24C5.3724 24 0 18.6264 0 12C0 5.3736 5.3724 0 12 0ZM12 2.4C6.7668 2.4 2.4 6.762 2.4 12C2.4 17.238 6.7668 21.6 12 21.6C17.2344 21.6 21.6 17.238 21.6 12C21.6 6.762 17.2344 2.4 12 2.4ZM12 7.2L16.8 12L12 16.8L7.2 12L12 7.2Z" fill="#DBDBDB"/>
</g>
<defs>
<clipPath id="clip0_884_12009">
<rect width="24" height="24" fill="white"/>
</clipPath>
</defs>
</svg>
