<svg width="24" height="24" viewBox="0 0 24 24" fill="none" xmlns="http://www.w3.org/2000/svg">
<path d="M3.75064 0C5.78149 1.452 10.9229 6.0276 12.7172 11.9436C14.5116 17.8596 12.7172 24 12.7172 24C9.1838 20.2032 5.14267 17.76 4.77378 17.5416L4.74807 17.526C4.1491 14.1768 1 8.148 1 8.148C5.54499 9.1884 7.33676 13.2828 7.33676 13.2828C6.85861 8.0376 3.75064 0 3.75064 0ZM23 7.0884C23 7.0884 21.4023 10.0536 20.6684 12.6132C20.3663 13.6668 20.3021 15.2532 20.2956 16.2828V16.6212C20.2995 17.0376 20.3085 17.3028 20.3085 17.3028C20.3085 17.3028 18.0746 20.1792 15.964 21.7164C16.0771 19.7952 16.0437 17.5944 15.6967 15.3156C16.8895 12.888 19.3548 8.7708 23 7.0884ZM20.6684 0C20.6684 0 17.5 4.5 16.6247 7.926C16.4833 8.6892 16.3663 9.3588 16.2596 9.96C15.7725 10.6608 15.3213 11.3592 14.91 12.0396C14.8676 11.8896 14.8329 11.7396 14.7879 11.5896C14.3997 10.3056 13.883 9.0756 13.2969 7.8936C13.365 7.7184 13.4293 7.5456 13.5154 7.368C13.5154 7.368 16.2455 2.1408 20.6684 0Z" fill="#6C6C6C"/>
</svg>
