<svg width="24" height="24" viewBox="0 0 24 24" fill="none" xmlns="http://www.w3.org/2000/svg">
<path fill-rule="evenodd" clip-rule="evenodd" d="M20.7273 3.58551C24 3.58551 24 7.01163 24 8.15365C24 11.5797 20.7273 12.7218 20.7273 12.7218H24C22.9297 13.4686 22.2095 14.8264 21.4195 16.3154C19.7939 19.3795 17.8731 23 12 23C6.12687 23 4.20612 19.3795 2.58052 16.3154C1.79056 14.8264 1.07029 13.4686 0 12.7218H3.27273C3.27273 12.7218 0 11.5797 0 8.15365C0 7.01163 0 3.58551 3.27273 3.58551H5.00026C6.01647 3.58551 7.01858 3.33784 7.92753 2.86209L11.0243 1.24114C11.6385 0.919621 12.3615 0.919621 12.9757 1.24114L16.0725 2.86208C16.9814 3.33784 17.9835 3.58551 18.9997 3.58551H20.7273ZM15.8568 9.29568L11.9999 5.25799L8.14298 9.29568L9.52604 10.7437L9 12.5238L7 14.4753V16.1905L7.92753 17.2381L9.81829 18.513L11.9999 16.7143L13.09 17.6136L14.1801 18.513L16.0725 17.2381L17 16.1905V14.4753L15 12.5238L14.473 10.7443L15.8568 9.29568Z" fill="#B04BC7"/>
</svg>
