<svg width="24" height="24" viewBox="0 0 24 24" fill="none" xmlns="http://www.w3.org/2000/svg">
<path d="M24 15.6232C24 13.4004 22.065 12.548 22.065 12.548C22.065 12.548 22.941 10.8383 22.941 9.51817C22.941 4.91935 19.4385 0 13.5621 0C6.8301 0 4.137 7.0038 4.137 7.0038C4.137 7.0038 3.3135 5.81753 3.573 2.96729C3.573 2.96729 0 5.93489 0 12.121C0 17.0828 3.5235 23 9.8592 23C14.124 23 16.9887 19.4695 16.9887 15.6483C16.9887 12.034 13.9902 9.89501 11.1825 9.89501C9.3489 9.89501 7.8303 11.201 7.8303 11.201C8.3442 8.64446 11.1462 7.62244 11.1462 7.62244C12.1593 2.91068 18.0117 3.45324 18.0117 3.45324C18.0117 3.45324 15.5658 4.71353 14.7231 6.99672C14.7231 6.99672 20.6076 9.00037 20.6076 15.4979C20.6076 20.1262 17.5095 22.591 17.5095 22.591C17.5095 22.591 20.4525 21.0816 22.4328 17.9217C22.8411 18.4348 22.8807 19.1761 22.8807 19.1761C22.8807 19.1761 24 17.8459 24 15.6232Z" fill="#67C4B0"/>
</svg>
