<svg width="24" height="24" viewBox="0 0 24 24" fill="none" xmlns="http://www.w3.org/2000/svg">
<path d="M12.5546 9.55505C12.8428 9.55505 13.0937 9.78445 13.1633 10.1112L15.1174 19.2901C15.1297 19.348 15.136 19.4075 15.136 19.4673V20.2528C15.136 20.4472 15.0698 20.6338 14.9521 20.7713L13.2286 22.7855C13.111 22.9228 12.9515 23 12.7852 23H11.2148C11.0485 23 10.889 22.9228 10.7714 22.7853L9.04775 20.7699C8.93013 20.6324 8.86406 20.4458 8.86406 20.2514V19.4658C8.86406 19.4061 8.8703 19.3466 8.88263 19.2887L10.8367 10.1112C10.9063 9.78445 11.1572 9.55505 11.4452 9.55505H12.5546ZM5.4683 4.66668C5.63465 4.66668 5.79418 4.74393 5.9118 4.88146L8.5716 7.99141C8.74902 8.19885 8.80362 8.50996 8.71043 8.78234L7.12627 13.4124C6.95903 13.9013 6.41884 14.0309 6.10047 13.6587L3.95678 11.1522C3.76585 10.929 3.71855 10.5879 3.83936 10.3054L4.22903 9.39482C4.43766 8.90719 4.13442 8.33335 3.66811 8.33335H1.88287C1.67319 8.33335 1.47738 8.21083 1.36105 8.00685L0.106424 5.80684C-0.171497 5.3195 0.12728 4.66668 0.628244 4.66668H5.4683ZM23.3718 4.66668C23.8727 4.66668 24.1715 5.3195 23.8936 5.80684L22.639 8.00685C22.5226 8.21083 22.3269 8.33335 22.1171 8.33335H20.3319C19.8655 8.33335 19.5623 8.9072 19.771 9.39482L20.1606 10.3054C20.2815 10.5879 20.2342 10.929 20.0433 11.1522L17.8996 13.6587C17.5812 14.0309 17.041 13.9013 16.8737 13.4124L15.2896 8.78234C15.1963 8.50996 15.251 8.19885 15.4284 7.99141L18.0882 4.88146C18.2058 4.74393 18.3654 4.66668 18.5317 4.66668H23.3718ZM13.9088 1C14.0856 1 14.2542 1.08719 14.373 1.24012L14.9729 2.01196C15.0779 2.14694 15.136 2.32279 15.136 2.50516V3.22286C15.136 3.36767 15.0992 3.50923 15.0306 3.6297L13.2311 6.78511C13.1148 6.9891 12.919 7.11161 12.7093 7.11161H11.2907C11.081 7.11161 10.8852 6.9891 10.7689 6.78511L8.96943 3.6297C8.90072 3.50923 8.86406 3.36767 8.86406 3.22286V2.50516C8.86406 2.32279 8.92218 2.14694 9.02709 2.01196L9.627 1.24012C9.7458 1.08719 9.9144 1 10.0912 1H13.9088Z" fill="#DBDBDB"/>
</svg>
