<svg width="32" height="30" viewBox="0 0 32 30" fill="none" xmlns="http://www.w3.org/2000/svg">
<g filter="url(#filter0_d_1483_18327)">
<path d="M16.5546 12.555C16.8428 12.555 17.0937 12.7845 17.1633 13.1112L19.1174 22.2901C19.1297 22.348 19.136 22.4075 19.136 22.4673V23.2528C19.136 23.4472 19.0698 23.6338 18.9521 23.7713L17.2286 25.7855C17.111 25.9228 16.9515 26 16.7852 26H15.2148C15.0485 26 14.889 25.9228 14.7714 25.7853L13.0478 23.7699C12.9301 23.6324 12.8641 23.4458 12.8641 23.2514V22.4658C12.8641 22.4061 12.8703 22.3466 12.8826 22.2887L14.8367 13.1112C14.9063 12.7845 15.1572 12.555 15.4452 12.555H16.5546ZM9.4683 7.66668C9.63465 7.66668 9.79418 7.74393 9.9118 7.88146L12.5716 10.9914C12.749 11.1989 12.8036 11.51 12.7104 11.7823L11.1263 16.4124C10.959 16.9013 10.4188 17.0309 10.1005 16.6587L7.95678 14.1522C7.76585 13.929 7.71855 13.5879 7.83936 13.3054L8.22903 12.3948C8.43766 11.9072 8.13442 11.3334 7.66811 11.3334H5.88287C5.67319 11.3334 5.47738 11.2108 5.36105 11.0069L4.10642 8.80684C3.8285 8.3195 4.12728 7.66668 4.62824 7.66668H9.4683ZM27.3718 7.66668C27.8727 7.66668 28.1715 8.3195 27.8936 8.80684L26.639 11.0069C26.5226 11.2108 26.3269 11.3334 26.1171 11.3334H24.3319C23.8655 11.3334 23.5623 11.9072 23.771 12.3948L24.1606 13.3054C24.2815 13.5879 24.2342 13.929 24.0433 14.1522L21.8996 16.6587C21.5812 17.0309 21.041 16.9013 20.8737 16.4124L19.2896 11.7823C19.1963 11.51 19.251 11.1989 19.4284 10.9914L22.0882 7.88146C22.2058 7.74393 22.3654 7.66668 22.5317 7.66668H27.3718ZM17.9088 4C18.0856 4 18.2542 4.08719 18.373 4.24012L18.9729 5.01196C19.0779 5.14694 19.136 5.32279 19.136 5.50516V6.22286C19.136 6.36767 19.0992 6.50923 19.0306 6.6297L17.2311 9.78511C17.1148 9.9891 16.919 10.1116 16.7093 10.1116H15.2907C15.081 10.1116 14.8852 9.9891 14.7689 9.78511L12.9694 6.6297C12.9007 6.50923 12.8641 6.36767 12.8641 6.22286V5.50516C12.8641 5.32279 12.9222 5.14694 13.0271 5.01196L13.627 4.24012C13.7458 4.08719 13.9144 4 14.0912 4H17.9088Z" fill="#DBDBDB"/>
</g>
<defs>
<filter id="filter0_d_1483_18327" x="0" y="-1" width="32" height="32" filterUnits="userSpaceOnUse" color-interpolation-filters="sRGB">
<feFlood flood-opacity="0" result="BackgroundImageFix"/>
<feColorMatrix in="SourceAlpha" type="matrix" values="0 0 0 0 0 0 0 0 0 0 0 0 0 0 0 0 0 0 127 0" result="hardAlpha"/>
<feOffset/>
<feGaussianBlur stdDeviation="2"/>
<feComposite in2="hardAlpha" operator="out"/>
<feColorMatrix type="matrix" values="0 0 0 0 1 0 0 0 0 1 0 0 0 0 1 0 0 0 1 0"/>
<feBlend mode="normal" in2="BackgroundImageFix" result="effect1_dropShadow_1483_18327"/>
<feBlend mode="normal" in="SourceGraphic" in2="effect1_dropShadow_1483_18327" result="shape"/>
</filter>
</defs>
</svg>
