<?xml version="1.0" encoding="UTF-8"?><svg id="Calque_2" xmlns="http://www.w3.org/2000/svg" xmlns:xlink="http://www.w3.org/1999/xlink" viewBox="0 0 1670 2287"><defs><style>.cls-1,.cls-2{fill:none;}.cls-2{stroke:#000;stroke-miterlimit:10;stroke-width:1.47px;}.cls-3{fill:url(#Nouveau_motif_5);}</style><pattern id="Nouveau_motif_5" x="0" y="0" width="193.55" height="321.41" patternTransform="translate(3766.4 -2543)" patternUnits="userSpaceOnUse" viewBox="0 0 193.55 321.41"><rect class="cls-1" width="193.55" height="321.41"/><g id="icone"><path class="cls-2" d="M190.02,222.01c.63-.29,1.16.53.69,1.01l-94.9,97.34L.91,223.02c-.46-.48.08-1.28.69-1.01,5.27,2.33,11.43,2.96,17.87,1.15,8.67-2.44,15.54-9.45,17.77-18.17,4.47-17.39-8.55-33-25.21-33-1.28.04-2.54.13-3.78.31l1.87-3.65L95.83,1.61l85.7,167.03,1.87,3.65c-1.24-.17-2.5-.27-3.78-.31-16.64,0-29.66,15.61-25.21,33,2.23,8.72,9.1,15.73,17.77,18.17,6.43,1.79,12.6,1.16,17.87-1.15h-.02ZM131.56,141.77c-35.73,0-35.73-63.2-35.73-63.2,0,0,0,63.2-35.73,63.2,0,0,35.73,32.96,35.73,131.89,0-98.91,35.73-131.89,35.73-131.89Z"/></g></pattern></defs><g id="Calque_6"><rect class="cls-3" x="0" width="1670" height="2287"/></g></svg>