<?xml version="1.0" encoding="UTF-8"?><svg id="Calque_2" xmlns="http://www.w3.org/2000/svg" xmlns:xlink="http://www.w3.org/1999/xlink" viewBox="0 0 1670 2287"><defs><style>.cls-1,.cls-2{fill:none;}.cls-3{fill:url(#Nouveau_motif_3);}.cls-2{stroke:#fff;stroke-miterlimit:10;stroke-width:2px;}</style><pattern id="Nouveau_motif_3" x="0" y="0" width="180.38" height="297.63" patternTransform="translate(2143 -2543)" patternUnits="userSpaceOnUse" viewBox="0 0 180.38 297.63"><rect class="cls-1" width="180.38" height="297.63"/><g id="icone"><path class="cls-2" d="M175.59,205.47c-.27-.08.28.66.63.93l-87.53,89.79L1.16,206.41c-.42-.44.07-1.18.63-.93,4.86,2.15,10.55,2.73,16.48,1.06,7.99-2.25,14.33-8.71,16.39-16.76,4.12-16.04-7.89-30.44-23.26-30.44-1.18.04-2.34.12-3.49.28l1.73-3.36L88.71,2.19l79.05,154.06,1.73,3.36c-1.14-.16-2.31-.25-3.49-.28-15.35,0-27.36,14.4-23.26,30.44,2.06,8.05,8.4,14.51,16.39,16.76,5.93,1.65,11.62,1.07,16.48-1.06h-.02ZM121.66,131.46c-32.96,0-32.96-58.29-32.96-58.29,0,0,0,58.29-32.96,58.29,0,0,32.96,30.4,32.96,121.65,0-91.23,32.96-121.65,32.96-121.65Z"/></g></pattern></defs><g id="Calque_6"><rect class="cls-3" width="1670" height="2287"/></g></svg>