<svg width="24" height="24" viewBox="0 0 24 24" fill="none" xmlns="http://www.w3.org/2000/svg">
<g clip-path="url(#clip0_884_12137)">
<path d="M17.1169 4.32728C18.4896 4.32728 19.0064 3.08017 18.3359 1.73075C21.3961 3.47137 24.8197 8.18318 21.3961 11.1747C18.5739 13.6404 15.6419 12.3379 13.2869 9.67893C11.7393 7.93165 6.84676 6.67881 6.84676 10.3187C6.84676 12.3252 8.2539 13.4819 10.2657 13.8499C9.72921 13.4819 8.69283 12.1725 9.72921 10.9057C10.9723 9.38653 13.6716 12.4567 15.6305 13.4819C17.9413 14.6911 20.3516 13.2784 21.6696 13.5695C25.8368 14.4904 24.308 21.75 17.9413 20.8599C14.9293 20.4388 13.1365 19.7383 11.9609 20.8599C10.5097 22.2443 13.806 23.8475 15.002 23.8475C12.5017 24.6981 5.42188 21.8465 8.55844 18.8779C9.40281 18.0787 10.2332 17.7592 10.912 17.7755C10.912 19.3343 13.3128 18.9931 14.3531 18.6167C16.6359 17.7909 15.9444 15.2373 13.7551 14.6911C11.0355 14.0128 9.50494 19.1289 3.42338 17.166C1.10963 16.4193 0 14.6039 0 12.8865C0 11.1691 1.13041 10.1227 1.66688 9.38653C1.22573 5.7844 2.4116 3.24356 4.20736 1.73075C6.67151 -0.345106 11.9609 -0.808213 13.6935 1.75953C14.1723 2.46903 15.2035 4.32728 17.1169 4.32728Z" fill="#A4B72B"/>
</g>
<defs>
<clipPath id="clip0_884_12137">
<rect width="24" height="24" fill="white"/>
</clipPath>
</defs>
</svg>
