<svg width="24" height="24" viewBox="0 0 24 24" fill="none" xmlns="http://www.w3.org/2000/svg">
<path d="M18.9517 19.5683C19.4803 20.4854 19.1663 21.6566 18.2507 22.1867C17.3322 22.7182 16.161 22.4042 15.6309 21.4872L12.5 16.0592L9.36908 21.4872C8.83898 22.4042 7.66781 22.7182 6.75073 22.1881C5.83365 21.658 5.51968 20.4854 6.04978 19.5698L9.1807 14.1403H2.91594C1.85867 14.1403 1 13.2831 1 12.2244C1 11.1627 1.85867 10.3055 2.9174 10.3055H9.1807L6.04832 4.87605C5.51968 3.96043 5.83365 2.78779 6.74927 2.25916C7.66781 1.7276 8.83898 2.04157 9.36908 2.95865L12.5 8.38665L15.6309 2.95865C16.161 2.04157 17.3322 1.7276 18.2493 2.2577C19.1663 2.78779 19.4803 3.96043 18.9502 4.87605L15.8193 10.3055H22.0841C23.1428 10.3055 24 11.1627 24 12.2214C24 13.2831 23.1428 14.1403 22.0841 14.1403H15.8193L18.9517 19.5683Z" fill="#DBDBDB"/>
</svg>
