<?xml version="1.0" encoding="UTF-8"?><svg id="Calque_2" xmlns="http://www.w3.org/2000/svg" viewBox="0 0 180.38 297.63"><defs><style>.cls-1{fill:none;stroke:#9c84f6;stroke-miterlimit:10;stroke-width:2px;}</style></defs><g id="Calque_1-2"><g id="icone"><path class="cls-1" d="M175.61,205.47c-4.86,2.13-10.55,2.71-16.48,1.06-7.99-2.25-14.33-8.71-16.39-16.76-4.1-16.04,7.9-30.44,23.26-30.44,1.18.04,2.34.12,3.49.28l-1.73-3.36L88.71,2.19,9.64,156.25l-1.73,3.36c1.14-.16,2.31-.25,3.49-.28,15.37,0,27.38,14.4,23.26,30.44-2.06,8.05-8.4,14.51-16.39,16.76-5.93,1.67-11.62,1.09-16.48-1.06-.56-.25-1.06.49-.63.93l87.53,89.79,87.53-89.79c.44-.44-.05-1.2-.63-.93h.02ZM88.71,253.11c0-91.25-32.96-121.65-32.96-121.65,32.96,0,32.96-58.29,32.96-58.29,0,0,0,58.29,32.96,58.29,0,0-32.96,30.42-32.96,121.65Z"/></g></g></svg>