<?xml version="1.0" encoding="UTF-8"?><svg id="Calque_2" xmlns="http://www.w3.org/2000/svg" viewBox="0 0 813.08 812.75"><defs><style>.cls-1{fill:none;stroke:#000;stroke-miterlimit:10;stroke-width:2px;}</style></defs><g id="Calque_1-2"><g id="icone"><path class="cls-1" d="M524.38,276.47c-6.56,2.88-14.23,3.67-22.23,1.42-10.79-3.03-19.34-11.75-22.12-22.61-5.54-21.64,10.66-41.07,31.39-41.07,1.59.04,3.15.17,4.69.38l-2.32-4.53L407.12,2.19l-106.67,207.87-2.32,4.53c1.54-.2,3.11-.34,4.69-.38,20.73,0,36.93,19.42,31.39,41.07-2.78,10.85-11.33,19.57-22.12,22.61-8,2.25-15.68,1.46-22.23-1.42-.77-.34-1.43.67-.84,1.27l118.11,121.14,118.11-121.14c.59-.6-.08-1.61-.84-1.27h-.02ZM407.12,340.74c0-123.11-44.46-164.15-44.46-164.15,44.46,0,44.46-78.65,44.46-78.65,0,0,0,78.65,44.46,78.65,0,0-44.46,41.04-44.46,164.15Z"/><path class="cls-1" d="M276.47,289.95c2.88,6.56,3.67,14.23,1.42,22.23-3.03,10.79-11.75,19.34-22.61,22.12-21.64,5.54-41.07-10.66-41.07-31.39.04-1.59.17-3.15.38-4.69l-4.53,2.32L2.19,407.21l207.87,106.67,4.53,2.32c-.2-1.54-.34-3.11-.38-4.69,0-20.73,19.42-36.93,41.07-31.39,10.85,2.78,19.57,11.33,22.61,22.12,2.25,8,1.46,15.68-1.42,22.23-.34.77.67,1.43,1.27.84l121.14-118.11-121.14-118.11c-.6-.59-1.61.08-1.27.84v.02ZM340.74,407.21c-123.11,0-164.15,44.46-164.15,44.46,0-44.46-78.65-44.46-78.65-44.46,0,0,78.65,0,78.65-44.46,0,0,41.04,44.46,164.15,44.46Z"/><path class="cls-1" d="M289.86,536.28c6.56-2.88,14.23-3.67,22.23-1.42,10.79,3.03,19.34,11.75,22.12,22.61,5.54,21.64-10.66,41.07-31.39,41.07-1.59-.04-3.15-.17-4.69-.38l2.32,4.53,106.67,207.87,106.67-207.87,2.32-4.53c-1.54.2-3.11.34-4.69.38-20.73,0-36.93-19.42-31.39-41.07,2.78-10.85,11.33-19.57,22.12-22.61,8-2.25,15.68-1.46,22.23,1.42.77.34,1.43-.67.84-1.27l-118.11-121.14-118.11,121.14c-.59.6.08,1.61.84,1.27h.02ZM407.12,472.01c0,123.11,44.46,164.15,44.46,164.15-44.46,0-44.46,78.65-44.46,78.65,0,0,0-78.65-44.46-78.65,0,0,44.46-41.04,44.46-164.15h0Z"/><path class="cls-1" d="M536.61,524.48c-2.88-6.56-3.67-14.23-1.42-22.23,3.03-10.79,11.75-19.34,22.61-22.12,21.64-5.54,41.07,10.66,41.07,31.39-.04,1.59-.17,3.15-.38,4.69l4.53-2.32,207.87-106.67-207.87-106.67-4.53-2.32c.2,1.54.34,3.11.38,4.69,0,20.73-19.42,36.93-41.07,31.39-10.85-2.78-19.57-11.33-22.61-22.12-2.25-8-1.46-15.68,1.42-22.23.34-.77-.67-1.43-1.27-.84l-121.14,118.11,121.14,118.11c.6.59,1.61-.08,1.27-.84v-.02ZM472.33,407.21c123.11,0,164.15-44.46,164.15-44.46,0,44.46,78.65,44.46,78.65,44.46,0,0-78.65,0-78.65,44.46,0,0-41.04-44.46-164.15-44.46h0Z"/></g></g></svg>