<?xml version="1.0" encoding="UTF-8"?><svg id="Calque_2" xmlns="http://www.w3.org/2000/svg" viewBox="0 0 772.99 125.01"><defs><style>.cls-1{fill:#5967b9;}</style></defs><g id="Calque_1-2"><g id="Calque_2-2"><path class="cls-1" d="M125,1v34.28H41v55.45h54v-18.15h-42c0-13.92,11.19-25.2,25-25.2h47v77.63H0V1h125Z"/><path class="cls-1" d="M140,1v124h125v-34.28h-85v-49.4c0-22.27-17.91-40.33-40-40.33h0Z"/><path class="cls-1" d="M493,1h-125v71.58h91v18.15h-57c-18.78,0-34,15.35-34,34.28h125V47.37h-90v-12.1h56c18.78,0,34-15.35,34-34.28h0Z"/><path class="cls-1" d="M633,1h0c0,18.93-15.22,34.28-34,34.28h-50v53.93h48.5c19.61,0,35.5,16.02,35.5,35.79h-125V1h125Z"/><path class="cls-1" d="M648,1v124h39.72v-35l5.25-3.76,36.96,38.76h43.06v-13.3l-46.45-48.7,21.43-14.27c15.58-10.37,25.02-28.38,25.02-47.73h-32.69l-53.85,41.33V1h-38.46.01Z"/><path class="cls-1" d="M311,0h-33.54v17.32c2.63.84,4.53,3.29,4.53,6.18s-1.9,5.34-4.53,6.18v9.6l14.54,51.72c11.43,27.73,32.84,34,64,34h0L311,0Z"/><path class="cls-1" d="M269.43,29.68c-2.63-.84-4.53-3.29-4.53-6.18s1.9-5.34,4.53-6.18V0h-31.43l-27.45,73.4h49l9.88-33.8v-9.92Z"/><polygon class="cls-1" points="207.98 23.5 233.26 13.23 254.84 .77 251.19 23.5 254.91 50.4 233.29 33.77 207.98 23.5"/><polygon class="cls-1" points="339.24 23.5 313.94 13.22 292.32 .76 296.05 23.5 292.39 50.4 313.97 33.78 339.24 23.5"/></g></g></svg>